<svg id="Capa_1" enable-background="new 0 0 512 512" height="512" viewBox="0 0 512 512" width="512" xmlns="http://www.w3.org/2000/svg"><g><path d="m512 237.311c0-13.563-8.294-25.224-20.076-30.18.051-.852.076-1.694.076-2.54 0-20.337-14.9-37.25-34.331-40.347.316-2.547.475-5.122.475-7.715 0-34.234-27.852-62.086-62.085-62.086-7.868 0-15.695 1.508-22.967 4.396-18.665-13.935-41.479-21.544-64.925-21.544-34.826 0-67.316 16.737-87.576 44.417-7.406-5.523-16.482-8.617-25.966-8.617-11.42 0-22.205 4.397-30.368 12.381-5.467 5.348-9.353 11.903-11.399 19.077-.708-.026-1.415-.04-2.124-.04-30.627 0-55.545 24.984-55.545 55.693 0 1.448.056 2.903.171 4.382h-62.636c-18.044-.001-32.724 14.68-32.724 32.724 0 15.801 11.257 29.022 26.173 32.065v27.634c0 54.623 30.009 102.368 74.406 127.615-7.606 6.285-12.46 15.784-12.46 26.395 0 18.879 15.368 34.238 34.257 34.238s34.257-15.359 34.257-34.238c0-2.871-.356-5.66-1.025-8.326 5.662.667 11.421 1.01 17.259 1.01h166.266c5.838 0 11.597-.344 17.259-1.01-.669 2.666-1.025 5.456-1.025 8.326 0 18.879 15.367 34.238 34.257 34.238s34.257-15.359 34.257-34.238c0-10.611-4.854-20.11-12.46-26.395 44.397-25.248 74.406-72.993 74.406-127.615v-27.634c14.916-3.043 26.173-16.264 26.173-32.066zm-389.624 227.948c-7.861 0-14.257-6.388-14.257-14.238 0-7.852 6.396-14.239 14.257-14.239s14.257 6.388 14.257 14.239c0 7.85-6.396 14.238-14.257 14.238zm267.248 0c-7.861 0-14.257-6.388-14.257-14.238 0-7.852 6.396-14.239 14.257-14.239s14.257 6.388 14.257 14.239c0 7.85-6.396 14.238-14.257 14.238zm-274.435-265.054c0-19.682 15.945-35.693 35.545-35.693 2.762 0 5.51.318 8.17.945 2.938.694 6.025.024 8.41-1.818 2.385-1.844 3.812-4.665 3.883-7.679.297-12.608 10.807-22.866 23.427-22.866 7.732 0 14.964 3.815 19.346 10.205 1.956 2.853 5.247 4.513 8.7 4.334 3.455-.156 6.583-2.087 8.272-5.104 15.622-27.902 45.212-45.235 77.223-45.235 20.888 0 41.154 7.398 57.067 20.833 3.12 2.634 7.529 3.106 11.137 1.192 6.102-3.236 12.726-4.877 19.688-4.877 23.206 0 42.085 18.88 42.085 42.086 0 4.959-.852 9.811-2.532 14.419-1.242 3.407-.542 7.22 1.829 9.963s6.044 3.99 9.593 3.254c1.373-.284 2.79-.428 4.213-.428 11.443 0 20.753 9.353 20.754 20.851h-356.551c-.175-1.51-.259-2.951-.259-4.382zm350.638 96.805c0 69.859-56.835 126.694-126.694 126.694h-166.266c-69.859 0-126.694-56.835-126.694-126.694v-26.975h419.654zm13.449-46.975h-446.552c-7.016 0-12.724-5.708-12.724-12.725 0-7.016 5.708-12.724 12.724-12.724h446.552c7.016 0 12.724 5.708 12.724 12.725 0 7.016-5.708 12.724-12.724 12.724z"/><path d="m207.127 97.294c19.452 0 35.277-15.825 35.277-35.276s-15.825-35.276-35.277-35.276-35.276 15.825-35.276 35.276 15.825 35.276 35.276 35.276zm0-50.553c8.424 0 15.277 6.853 15.277 15.276s-6.853 15.276-15.277 15.276c-8.423 0-15.276-6.853-15.276-15.276s6.853-15.276 15.276-15.276z"/></g></svg>