<svg id="Capa_1" enable-background="new 0 0 512 512" height="512" viewBox="0 0 512 512" width="512" xmlns="http://www.w3.org/2000/svg"><g><path d="m326.904 156.898v-16.654c0-15.71-12.781-28.491-28.492-28.491h-1.431l-8.645-7.556c-1.715-2.974-1.351-6.746.988-9.268.914-.983 1.841-1.939 2.737-2.863 1.277-1.317 2.483-2.562 3.613-3.829 8.652-9.709 13.417-22.22 13.417-35.226 0-14.606-5.823-28.212-16.396-38.311-10.59-10.117-24.502-15.315-39.188-14.642-13.066.6-25.428 6.03-34.81 15.292-9.389 9.269-14.965 21.557-15.703 34.603-.797 14.089 3.902 27.646 13.23 38.173 1.165 1.314 2.413 2.602 3.733 3.964.886.913 1.802 1.856 2.704 2.828 2.348 2.526 2.716 6.304 1 9.279l-8.643 7.557h-1.431c-15.71 0-28.492 12.781-28.492 28.491v16.654c-28.639 8.955-49.48 35.73-49.48 67.281v217.347c0 19.205 7.722 36.64 20.224 49.365 12.786 13.022 30.571 21.11 50.208 21.11h99.906c19.636 0 37.421-8.088 50.208-21.11 12.502-12.724 20.224-30.16 20.224-49.365v-217.348c0-31.551-20.841-58.326-49.481-67.281zm-89.589-75.593c-1-1.076-2.015-2.125-2.998-3.138-1.16-1.196-2.255-2.326-3.122-3.305-5.806-6.552-8.729-14.997-8.232-23.781.941-16.642 14.761-30.278 31.461-31.045 9.164-.417 17.855 2.82 24.458 9.128 6.584 6.288 10.21 14.758 10.21 23.848 0 8.094-2.965 15.879-8.348 21.919-.849.953-1.914 2.051-3.041 3.213-.994 1.025-2.023 2.087-3.038 3.181-7.716 8.315-9.457 20.373-4.905 30.429h-27.524c4.557-10.063 2.809-22.129-4.921-30.449zm-32.219 72.4v-13.461c0-4.682 3.81-8.491 8.492-8.491h84.825c4.682 0 8.492 3.81 8.492 8.491v13.461zm.994 20h99.82c27.832 0 50.475 22.643 50.475 50.474v77.681h-200.77v-26.888h37.536c5.523 0 10-4.478 10-10s-4.477-10-10-10h-37.536v-30.793c0-27.831 22.643-50.474 50.475-50.474zm0 318.295c-13.914 0-26.53-5.659-35.67-14.796-.002-.001-.003-.003-.005-.005-.057-.057-.114-.115-.171-.173-9.038-9.134-14.629-21.697-14.629-35.543v-25.849h22.874c5.523 0 10-4.478 10-10s-4.477-10-10-10h-22.874v-26.888h37.536c5.523 0 10-4.478 10-10s-4.477-10-10-10h-37.536v-26.886h200.77v119.624c0 13.846-5.591 26.408-14.629 35.543-.057.058-.114.116-.171.173-.002.002-.003.003-.005.005-9.139 9.136-21.756 14.795-35.67 14.795z"/></g></svg>