<svg id="Capa_1" enable-background="new 0 0 512 512" height="512" viewBox="0 0 512 512" width="512" xmlns="http://www.w3.org/2000/svg"><g><path d="m401.722 0h-291.444c-22.97 0-41.658 18.688-41.658 41.658v428.684c0 22.971 18.688 41.658 41.658 41.658h291.443c22.971 0 41.658-18.688 41.658-41.658v-428.684c.001-22.97-18.687-41.658-41.657-41.658zm21.658 470.342c0 11.942-9.716 21.658-21.658 21.658h-291.444c-11.942 0-21.658-9.716-21.658-21.658v-428.684c0-11.942 9.716-21.658 21.658-21.658h291.443c11.942 0 21.658 9.716 21.658 21.658v428.684z"/><path d="m172.171 41.062c-26.377 0-47.836 21.459-47.836 47.836s21.459 47.837 47.836 47.837 47.837-21.46 47.837-47.837-21.46-47.836-47.837-47.836zm0 75.673c-15.349 0-27.836-12.487-27.836-27.837 0-15.349 12.487-27.836 27.836-27.836 15.35 0 27.837 12.487 27.837 27.836 0 15.35-12.487 27.837-27.837 27.837z"/><path d="m172.171 152.464c-26.377 0-47.836 21.459-47.836 47.836s21.459 47.836 47.836 47.836 47.837-21.459 47.837-47.836-21.46-47.836-47.837-47.836zm0 75.672c-15.349 0-27.836-12.487-27.836-27.836s12.487-27.836 27.836-27.836c15.35 0 27.837 12.487 27.837 27.836s-12.487 27.836-27.837 27.836z"/><path d="m172.171 263.864c-26.377 0-47.836 21.459-47.836 47.836s21.459 47.836 47.836 47.836 47.837-21.459 47.837-47.836-21.46-47.836-47.837-47.836zm0 20c4.02 0 7.843.857 11.297 2.397l-36.736 36.736c-1.54-3.454-2.397-7.277-2.397-11.297 0-15.348 12.487-27.836 27.836-27.836zm0 55.672c-4.019 0-7.842-.857-11.296-2.396l36.736-36.737c1.54 3.454 2.397 7.277 2.397 11.297 0 15.349-12.487 27.836-27.837 27.836z"/><path d="m172.171 375.265c-26.377 0-47.836 21.46-47.836 47.837s21.459 47.836 47.836 47.836 47.837-21.459 47.837-47.836-21.46-47.837-47.837-47.837zm0 75.673c-15.349 0-27.836-12.487-27.836-27.836 0-15.35 12.487-27.837 27.836-27.837 15.35 0 27.837 12.487 27.837 27.837 0 15.348-12.487 27.836-27.837 27.836z"/><path d="m339.829 41.062c-26.377 0-47.837 21.459-47.837 47.836s21.46 47.837 47.837 47.837 47.836-21.46 47.836-47.837-21.459-47.836-47.836-47.836zm0 20c3.952 0 7.715.828 11.124 2.32l-36.641 36.64c-1.492-3.409-2.32-7.171-2.32-11.124 0-15.348 12.487-27.836 27.837-27.836zm0 55.673c-4.087 0-7.971-.885-11.471-2.474l36.833-36.832c1.589 3.499 2.474 7.383 2.474 11.469 0 15.35-12.487 27.837-27.836 27.837z"/><path d="m339.829 152.464c-26.377 0-47.837 21.459-47.837 47.836s21.46 47.836 47.837 47.836 47.836-21.459 47.836-47.836-21.459-47.836-47.836-47.836zm0 75.672c-15.35 0-27.837-12.487-27.837-27.836s12.487-27.836 27.837-27.836c15.349 0 27.836 12.487 27.836 27.836s-12.487 27.836-27.836 27.836z"/><path d="m339.829 263.864c-26.377 0-47.837 21.459-47.837 47.836s21.46 47.836 47.837 47.836 47.836-21.459 47.836-47.836-21.459-47.836-47.836-47.836zm0 75.672c-15.35 0-27.837-12.487-27.837-27.836s12.487-27.836 27.837-27.836c15.349 0 27.836 12.487 27.836 27.836s-12.487 27.836-27.836 27.836z"/><path d="m339.829 375.265c-26.377 0-47.837 21.46-47.837 47.837s21.46 47.836 47.837 47.836 47.836-21.459 47.836-47.836-21.459-47.837-47.836-47.837zm0 75.673c-15.35 0-27.837-12.487-27.837-27.836 0-15.35 12.487-27.837 27.837-27.837 15.349 0 27.836 12.487 27.836 27.837 0 15.348-12.487 27.836-27.836 27.836z"/><path d="m256 80.032c-5.522 0-10 4.478-10 10v331.936c0 5.522 4.478 10 10 10s10-4.478 10-10v-331.936c0-5.522-4.478-10-10-10z"/></g></svg>