<svg id="Capa_1" enable-background="new 0 0 512 512" height="512" viewBox="0 0 512 512" width="512" xmlns="http://www.w3.org/2000/svg"><g><path d="m511.996 229.619c-.282-40.152-16.307-77.875-45.12-106.218-28.467-28.002-65.872-43.369-105.48-43.369-.479 0-.965.003-1.445.007-28.262.268-55.745 8.42-79.479 23.576-21.268 13.582-27.673 13.582-48.942 0-23.733-15.156-51.217-23.309-79.479-23.576-.483-.004-.964-.007-1.445-.007-39.605 0-77.016 15.369-105.48 43.369-28.817 28.344-44.84 66.066-45.122 106.219-.284 40.472 15.254 78.566 43.754 107.268 28.484 28.686 66.429 44.483 106.843 44.483 4.533 0 9.092-.204 13.605-.608 19.073 30.715 53.089 51.206 91.795 51.206s72.722-20.49 91.794-51.205c4.511.404 9.069.608 13.604.608 40.415 0 78.359-15.798 106.844-44.483 28.499-28.704 44.038-66.799 43.753-107.27zm-255.995 182.349c-48.526 0-88.006-39.535-88.006-88.13 0-23.865 9.816-46.693 26.74-63.193 4.729 9.643 11.667 18.014 20.15 24.448-9.779 10.349-15.345 24.077-15.345 38.745 0 31.164 25.328 56.519 56.461 56.519 31.132 0 56.459-25.354 56.459-56.519 0-14.668-5.566-28.396-15.345-38.745 8.483-6.434 15.421-14.805 20.15-24.448 16.924 16.499 26.74 39.328 26.74 63.193 0 48.595-39.479 88.13-88.004 88.13zm-.001-133.047c-26.573 0-48.191-21.631-48.191-48.22s21.618-48.22 48.191-48.22 48.191 21.631 48.191 48.22-21.618 48.22-48.191 48.22zm36.46 44.917c0 20.137-16.355 36.519-36.459 36.519-20.105 0-36.461-16.382-36.461-36.519 0-11.343 5.157-21.819 13.971-28.729 7.044 2.469 14.613 3.812 22.489 3.812s15.445-1.343 22.489-3.812c8.814 6.91 13.971 17.387 13.971 28.729zm161.591-1.044c-24.701 24.876-57.605 38.576-92.651 38.576-1.359 0-2.72-.021-4.08-.063 4.323-11.679 6.686-24.303 6.686-37.469 0-32.692-15.002-63.792-40.388-84.265.379-2.905.574-5.866.574-8.872 0-37.616-30.591-68.22-68.191-68.22s-68.191 30.604-68.191 68.22c0 3.006.196 5.968.574 8.873-25.386 20.473-40.388 51.572-40.388 84.264 0 13.166 2.363 25.79 6.686 37.469-1.361.042-2.722.063-4.08.063-35.045 0-67.949-13.699-92.65-38.575-24.717-24.892-38.193-57.933-37.946-93.035.244-34.802 14.146-67.511 39.145-92.102 24.996-24.589 57.947-37.98 92.711-37.621 24.509.232 48.336 7.298 68.905 20.433 27.661 17.666 42.81 17.667 70.471 0 20.569-13.135 44.396-20.2 68.904-20.432.418-.004.833-.006 1.251-.006 34.326 0 66.765 13.334 91.46 37.626 24.999 24.591 38.901 57.299 39.146 92.101.245 35.104-13.231 68.144-37.948 93.035z"/></g></svg>