<svg id="Capa_1" enable-background="new 0 0 512 512" height="512" viewBox="0 0 512 512" width="512" xmlns="http://www.w3.org/2000/svg"><g><path d="m484.769 25.999c-16.666-16.766-38.829-25.999-62.406-25.999-23.576 0-45.738 9.233-62.403 25.999l-233.767 235.147c-7.446 7.491-12.735 16.88-15.293 27.152l-1.176 4.727c-12.325 49.579-13.613 54.762-49.667 92.307-.011.011-.021.023-.032.034-1.233 1.284-2.478 2.557-3.734 3.821l-40.938 41.173c-18.528 18.64-18.528 48.969 0 67.607 8.996 9.05 20.959 14.033 33.687 14.033s24.692-4.983 33.686-14.031l40.938-41.174c1.266-1.273 2.543-2.536 3.831-3.787.007-.007.014-.015.022-.022 37.19-36.141 42.326-37.433 91.373-49.767l5.082-1.279c10.231-2.579 19.58-7.905 27.033-15.404l233.766-235.147c34.363-34.571 34.363-90.821-.002-125.39zm-416.226 457.869c-5.213 5.244-12.139 8.132-19.503 8.132s-14.29-2.888-19.503-8.132c-10.8-10.864-10.8-28.543 0-39.407l37.766-37.984 39.089 39.324zm168.276-111.432c-4.894 4.923-11.027 8.419-17.737 10.111l-5.071 1.276c-47.275 11.889-58.142 14.621-93.324 47.988l-39.476-39.711c33.331-35.551 36.049-46.492 47.922-94.25l1.173-4.717c1.686-6.77 5.168-12.955 10.07-17.887l213.76-215.022 96.521 97.11zm233.766-235.148-5.827 5.861-96.521-97.11 5.906-5.941c12.884-12.96 30.009-20.098 48.221-20.098s35.338 7.138 48.222 20.099c26.635 26.795 26.635 70.394-.001 97.189z"/><path d="m281.524 193.312c-9.851 0-19.109 3.857-26.072 10.861l-69.879 70.298c-14.352 14.438-14.352 37.931 0 52.369 6.962 7.004 16.222 10.861 26.072 10.862 9.85 0 19.111-3.858 26.073-10.862l69.878-70.297c14.354-14.438 14.354-37.931 0-52.369-6.962-7.005-16.222-10.862-26.072-10.862zm11.889 49.131-69.879 70.297c-3.181 3.199-7.403 4.962-11.889 4.962-4.486-.001-8.708-1.763-11.888-4.962-6.624-6.664-6.624-17.506 0-24.17l69.878-70.298c3.181-3.199 7.402-4.961 11.888-4.961s8.709 1.763 11.89 4.962c6.624 6.665 6.624 17.506 0 24.17z"/><path d="m380.759 131.559-.938-.943c0-.001-.001-.001-.001-.001-6.842-6.883-15.941-10.672-25.625-10.672-9.683 0-18.782 3.79-25.622 10.672-14.084 14.168-14.083 37.22-.001 51.385l.938.944c6.842 6.883 15.941 10.672 25.625 10.672 9.683 0 18.782-3.79 25.622-10.672 14.084-14.167 14.085-37.218.002-51.385zm-14.184 37.285c-3.059 3.077-7.121 4.771-11.439 4.771s-8.381-1.694-11.439-4.771l-.938-.944c-6.354-6.393-6.354-16.794 0-23.187 3.059-3.077 7.121-4.771 11.439-4.771 4.317 0 8.38 1.694 11.439 4.771l.938.944c6.354 6.393 6.354 16.794 0 23.187z"/></g></svg>