<svg id="Capa_1" enable-background="new 0 0 512 512" height="512" viewBox="0 0 512 512" width="512" xmlns="http://www.w3.org/2000/svg"><g><path d="m509.071 146.656-143.727-143.728c-3.905-3.904-10.237-3.904-14.143 0-3.905 3.905-3.905 10.237 0 14.143l42.327 42.327-36.994 36.994-58.72-58.72c-3.905-3.903-10.237-3.904-14.142 0l-29.043 29.043c-1.875 1.876-2.929 4.419-2.929 7.071s1.054 5.195 2.929 7.071l20.977 20.977-203.215 203.214c-26.262 26.263-28.224 67.765-5.885 96.305l-21.606 21.608c-1.875 1.876-2.929 4.419-2.929 7.071s1.054 5.196 2.929 7.071l7.927 7.927-49.898 49.898c-3.905 3.905-3.905 10.237 0 14.143 1.952 1.952 4.512 2.929 7.071 2.929s5.119-.977 7.071-2.929l49.899-49.899 7.927 7.927c1.953 1.952 4.512 2.929 7.071 2.929s5.118-.977 7.071-2.929l21.607-21.606c13.118 10.268 28.974 15.401 44.83 15.401 18.641 0 37.282-7.095 51.474-21.286l203.214-203.214 20.977 20.977c1.953 1.952 4.512 2.929 7.071 2.929s5.119-.977 7.071-2.929l29.043-29.043c1.875-1.876 2.929-4.419 2.929-7.071s-1.054-5.195-2.929-7.071l-58.72-58.72 36.994-36.993 42.327 42.327c1.953 1.952 4.512 2.929 7.071 2.929s5.119-.977 7.071-2.929c3.907-3.907 3.907-10.239.002-14.144zm-427.103 299.23-15.855-15.854 14.157-14.156 7.927 7.927 7.927 7.927zm110.84-20.421c-20.585 20.584-54.079 20.584-74.664 0l-.787-.787c-.006-.007-.013-.013-.019-.02l-29.997-29.997c-.006-.006-.013-.013-.019-.019l-.788-.788c-20.585-20.585-20.585-54.079 0-74.664l65.568-65.568 14.94 14.94c1.953 1.952 4.512 2.929 7.071 2.929s5.119-.977 7.071-2.929c3.905-3.905 3.906-10.237 0-14.143l-14.94-14.94 18.811-18.811 106.275 106.276zm112.664-112.663-106.274-106.275 18.81-18.81 14.94 14.94c1.953 1.952 4.512 2.929 7.071 2.929s5.119-.977 7.071-2.929c3.905-3.905 3.905-10.237 0-14.143l-14.94-14.94 18.811-18.811 36.815 36.816c1.953 1.952 4.512 2.929 7.071 2.929s5.119-.977 7.071-2.929c3.905-3.905 3.906-10.237 0-14.143l-36.815-36.816 24.644-24.644 106.274 106.274zm132.741-76.645-162.371-162.37 14.901-14.901 162.371 162.371zm-36.748-94.834-30.788-30.788 36.994-36.994 30.788 30.788z"/></g></svg>