<svg id="Capa_1" enable-background="new 0 0 512 512" height="512" viewBox="0 0 512 512" width="512" xmlns="http://www.w3.org/2000/svg"><g><path d="m251.588 333.776-74.661-24.317v-146.261c0-5.522-4.478-10-10-10h-156.927c-5.522 0-10 4.478-10 10v211.068c0 18.552 5.936 36.209 17.165 51.063 11.212 14.83 26.626 25.44 44.575 30.684l138.553 40.471c8.16 2.384 16.442 3.557 24.646 3.557 18.446-.002 36.482-5.933 51.733-17.365 21.68-16.253 34.113-41.016 34.113-67.938.001-36.894-23.789-69.43-59.197-80.962zm-94.661-160.578v138.707l-26.314 21.001c-4.316 3.445-5.022 9.737-1.577 14.055 1.975 2.474 4.885 3.762 7.822 3.762 2.187 0 4.389-.714 6.231-2.185l25.865-20.642 75.167 24.483-65.265 117.008-67.224-19.636c1.721-7.159 2.54-14.177 2.54-21.555 0-52.937-41.828-96.289-94.171-98.74v-156.258zm-136.927 201.068v-24.782c41.309 2.429 74.171 36.805 74.171 78.712 0 5.513-.557 10.652-1.76 15.941l-25.063-7.321c-27.878-8.144-47.348-33.864-47.348-62.55zm244.676 92.406c-16.946 12.706-38.37 16.572-58.775 10.614l-7.353-2.148 63.656-114.123c17.602 11.946 28.583 31.836 28.583 53.722-.001 20.566-9.517 39.496-26.111 51.935z"/><path d="m127.733 236.594c5.522 0 10-4.478 10-10v-18.021c0-5.522-4.478-10-10-10s-10 4.478-10 10v18.021c0 5.523 4.478 10 10 10z"/><path d="m88.489 236.594c5.522 0 10-4.478 10-10v-18.021c0-5.522-4.478-10-10-10s-10 4.478-10 10v18.021c0 5.523 4.478 10 10 10z"/><path d="m49.244 236.594c5.522 0 10-4.478 10-10v-18.021c0-5.522-4.478-10-10-10s-10 4.478-10 10v18.021c0 5.523 4.478 10 10 10z"/><path d="m452.803 192.537-74.662-24.316v-146.262c0-5.522-4.478-10-10-10h-156.927c-5.522 0-10 4.478-10 10v211.068c0 18.552 5.936 36.209 17.165 51.062 11.212 14.831 26.626 25.44 44.575 30.684l138.553 40.472c8.159 2.384 16.443 3.556 24.646 3.556 18.448 0 36.481-5.931 51.733-17.364 21.68-16.254 34.114-41.016 34.114-67.938 0-36.894-23.789-69.43-59.197-80.962zm-94.662-160.578v138.707l-26.313 21c-4.317 3.445-5.023 9.737-1.579 14.054 1.976 2.475 4.886 3.763 7.823 3.763 2.187 0 4.389-.714 6.23-2.184l25.865-20.642 75.168 24.482-65.266 117.009-67.224-19.636c1.721-7.159 2.54-14.176 2.54-21.555 0-52.938-41.829-96.289-94.171-98.74v-156.258zm-136.927 201.069v-24.783c41.308 2.429 74.171 36.805 74.171 78.712 0 5.514-.557 10.652-1.76 15.941l-25.063-7.321c-27.878-8.144-47.348-33.865-47.348-62.549zm244.676 92.406c-16.948 12.704-38.371 16.572-58.775 10.614l-7.353-2.148 63.657-114.124c17.601 11.947 28.581 31.837 28.581 53.723 0 20.565-9.517 39.495-26.11 51.935z"/><path d="m328.947 95.355c5.522 0 10-4.478 10-10v-18.021c0-5.522-4.478-10-10-10s-10 4.478-10 10v18.021c0 5.522 4.478 10 10 10z"/><path d="m289.703 95.355c5.522 0 10-4.478 10-10v-18.021c0-5.522-4.478-10-10-10s-10 4.478-10 10v18.021c0 5.522 4.478 10 10 10z"/><path d="m250.459 95.355c5.522 0 10-4.478 10-10v-18.021c0-5.522-4.478-10-10-10s-10 4.478-10 10v18.021c0 5.522 4.478 10 10 10z"/></g></svg>