<svg id="Capa_1" enable-background="new 0 0 512 512" height="512" viewBox="0 0 512 512" width="512" xmlns="http://www.w3.org/2000/svg"><g><path d="m334.376 303.409h-156.752c-5.523 0-10 4.478-10 10v144.591c0 5.522 4.477 10 10 10h156.752c5.522 0 10-4.478 10-10v-144.591c0-5.522-4.478-10-10-10zm-10 144.591h-136.752v-124.591h136.752z"/><path d="m364.753 264.886c-4.017-3.167-6.32-7.865-6.32-12.89 0-4.421 1.776-8.589 5.002-11.736 23.165-22.601 26.136-55.879 26.136-82.346 0-55.44-41.386-101.485-95.162-109.413v-28.501h7.458c5.522 0 10-4.478 10-10s-4.478-10-10-10h-91.733c-5.523 0-10 4.478-10 10s4.477 10 10 10h7.458v28.501c-53.776 7.927-95.162 53.973-95.162 109.413 0 26.467 2.971 59.745 26.136 82.346 3.225 3.147 5.001 7.315 5.001 11.736 0 5.024-2.304 9.723-6.321 12.891-15.012 11.839-23.622 29.525-23.622 48.522v156.432c0 23.247 19.063 42.159 42.496 42.159h179.762c23.432 0 42.495-18.912 42.495-42.159v-156.432c-.001-18.997-8.61-36.683-23.624-48.523zm-90.345-244.886v27.295h-36.816v-27.295zm93.968 449.841c0 12.219-10.091 22.159-22.495 22.159h-179.762c-12.404 0-22.496-9.94-22.496-22.159v-156.432c0-12.834 5.834-24.796 16.006-32.818 8.857-6.983 13.938-17.406 13.938-28.595 0-9.714-4.021-19.209-11.034-26.052-14.091-13.747-20.103-34.093-20.103-68.03 0-10.612 1.855-20.804 5.261-30.275h173.054c5.522 0 10-4.478 10-10s-4.478-10-10-10h-162.88c16.459-24.308 44.488-40.344 76.235-40.344h43.799c50.548 0 91.671 40.651 91.671 90.619 0 33.938-6.012 54.283-20.103 68.03-7.013 6.842-11.035 16.338-11.035 26.052 0 11.188 5.08 21.61 13.937 28.594 10.173 8.023 16.007 19.985 16.007 32.819z"/><path d="m256 272.349c25.918 0 47.003-21.086 47.003-47.004 0-23.52-33.397-56.645-40.092-63.046-3.866-3.697-9.956-3.695-13.822 0-6.695 6.401-40.092 39.526-40.092 63.046 0 25.918 21.085 47.004 47.003 47.004zm0-88.609c12.875 13.668 27.003 32.222 27.003 41.604 0 14.89-12.113 27.004-27.003 27.004s-27.003-12.114-27.003-27.004c0-9.383 14.128-27.937 27.003-41.604z"/></g></svg>