<svg id="Capa_1" enable-background="new 0 0 512.002 512.002" height="512" viewBox="0 0 512.002 512.002" width="512" xmlns="http://www.w3.org/2000/svg"><g><path d="m446.031 181.382h-18.912c4.093-19.622 21.516-34.406 42.326-34.406 5.522 0 10-4.478 10-10s-4.478-10-10-10c-31.867 0-58.305 23.701-62.62 54.406h-107.502l-56.719-164.118c-.001-.003-.002-.006-.003-.009l-3.635-10.519c-1.804-5.221-7.502-7.988-12.718-6.185-5.081 1.756-7.84 7.199-6.318 12.302-46.021 9.739-84.69 30.784-112.36 61.268-26.983 29.728-42.192 66.675-44.308 107.368-17.727 1.386-31.727 16.258-31.727 34.338v.227c0 17.329 12.862 31.71 29.538 34.096l21.654 84.367c3.886 18.357 13.974 34.974 28.426 46.811 4.09 3.35 8.48 6.277 13.095 8.753-18.526 11.741-30.841 32.372-30.841 55.814 0 36.453 29.778 66.109 66.382 66.109 36.603 0 66.381-29.656 66.381-66.109 0-13.047-3.815-25.223-10.392-35.481 12.375-5.824 26.05-8.93 40.224-8.93s27.849 3.107 40.224 8.93c-6.577 10.258-10.392 22.434-10.392 35.481 0 36.453 29.778 66.109 66.381 66.109 36.604 0 66.382-29.656 66.382-66.109 0-23.442-12.315-44.073-30.841-55.814 4.614-2.476 9.004-5.402 13.095-8.753 14.452-11.837 24.54-28.453 28.426-46.811l21.654-84.367c16.677-2.385 29.538-16.766 29.538-34.096v-.227c-.001-18.993-15.449-34.445-34.438-34.445zm-219.523-149.463 32.019 92.647 19.636 56.816h-194.862c4.479-75.088 59.414-132.548 143.207-149.463zm191.631 265.535h-324.276l-12.052-46.957h348.38zm-211.97 148.439c0 25.425-20.807 46.109-46.381 46.109-25.575 0-46.382-20.685-46.382-46.109s20.807-46.108 46.382-46.108c8.973 0 17.358 2.546 24.464 6.95-6.577 5.323-12.616 11.425-17.989 18.244-3.418 4.338-2.673 10.625 1.666 14.043 4.338 3.42 10.627 2.673 14.043-1.666 4.94-6.27 10.563-11.804 16.724-16.534 4.726 7.222 7.473 15.833 7.473 25.071zm146.045 46.109c-25.574 0-46.381-20.685-46.381-46.109 0-9.238 2.748-17.849 7.472-25.071 6.161 4.729 11.784 10.264 16.724 16.534 1.973 2.505 4.902 3.812 7.861 3.812 2.166 0 4.349-.7 6.182-2.146 4.339-3.418 5.084-9.705 1.666-14.043-5.373-6.82-11.412-12.921-17.989-18.244 7.106-4.404 15.492-6.95 24.464-6.95 25.575 0 46.382 20.685 46.382 46.108.001 25.425-20.806 46.109-46.381 46.109zm57.532-161.802c-5.996 28.731-31.426 49.585-60.466 49.585h-186.558c-29.04 0-54.47-20.854-60.466-49.585-.031-.148-.065-.296-.103-.443l-3.157-12.303h314.01l-3.157 12.303c-.037.147-.071.294-.103.443zm50.722-114.147c0 7.964-6.477 14.443-14.437 14.443h-380.06c-7.96 0-14.437-6.479-14.437-14.443v-.227c0-7.965 6.477-14.444 14.437-14.444h380.061c7.96 0 14.437 6.479 14.437 14.444v.227z"/></g></svg>