<svg id="Capa_1" enable-background="new 0 0 512 512" height="512" viewBox="0 0 512 512" width="512" xmlns="http://www.w3.org/2000/svg"><g><path d="m256 0c-77.766 0-141.034 63.268-141.034 141.034v229.932c0 77.766 63.268 141.034 141.034 141.034s141.034-63.268 141.034-141.034v-229.932c0-77.766-63.268-141.034-141.034-141.034zm51.322 382.886 4.34 41.409c.523 4.993-2.57 7.821-3.924 8.806-1.357.985-5.007 3.06-9.611 1.014l-38.065-16.922c-1.293-.575-2.677-.862-4.062-.862s-2.769.287-4.062.862l-38.065 16.922c-4.603 2.045-8.255-.028-9.611-1.014-1.354-.984-4.447-3.812-3.924-8.806l4.34-41.409c.295-2.817-.618-5.628-2.514-7.732l-27.865-30.952c-3.361-3.733-2.522-7.837-2.005-9.428.518-1.593 2.252-5.411 7.175-6.459l40.748-8.671c2.769-.59 5.159-2.325 6.576-4.775l20.843-36.051c2.517-4.354 6.688-4.823 8.365-4.823s5.848.47 8.365 4.822l20.844 36.052c1.417 2.45 3.807 4.186 6.576 4.775l40.748 8.671c4.922 1.048 6.657 4.866 7.175 6.459.517 1.591 1.355 5.694-2.005 9.428l-27.865 30.952c-1.899 2.104-2.812 4.914-2.517 7.732zm38.962-70.291c-2.884-1.792-6.113-3.103-9.589-3.843l-35.428-7.539 75.767-75.767v56.399zm-211.318-171.561c0-66.738 54.296-121.034 121.034-121.034s121.034 54.296 121.034 121.034v56.126l-86.668 86.669-8.687-15.024c-5.363-9.274-14.962-14.812-25.679-14.812s-20.316 5.537-25.679 14.812l-18.618 32.201-36.398 7.745c-10.486 2.232-18.723 9.65-22.033 19.844-3.309 10.188-1.005 21.024 6.163 28.986l24.889 27.646-.544 5.187-35.57 35.571c-8.465-16.516-13.243-35.22-13.243-55.02v-229.931zm24.12 302.36 21.382-21.382-.021.199c-1.116 10.651 3.391 20.771 12.056 27.068 3.641 2.646 7.698 4.386 11.904 5.192l-16.507 16.507c-11.053-7.551-20.797-16.885-28.814-27.584zm96.914 48.606c-17.825 0-34.761-3.874-50.014-10.822l39.015-39.015 10.999-4.89 34.004 15.116c3.92 1.742 8.035 2.602 12.119 2.602 6.122-.001 12.172-1.932 17.374-5.712 8.666-6.298 13.172-16.417 12.056-27.068l-3.876-36.983 24.889-27.646c7.168-7.962 9.472-18.798 6.163-28.986-.013-.04-.027-.08-.04-.12l18.345-18.346v60.836c0 66.738-54.296 121.034-121.034 121.034z"/><path d="m256 240.871c53.131 0 96.356-43.396 96.356-96.735v-2.479c0-53.34-43.225-96.735-96.356-96.735s-96.356 43.396-96.356 96.735v2.479c0 53.34 43.225 96.735 96.356 96.735zm-76.356-99.214c0-42.312 34.253-76.735 76.356-76.735s76.356 34.423 76.356 76.735v2.479c0 42.312-34.253 76.735-76.356 76.735s-76.356-34.423-76.356-76.735z"/><path d="m235.362 144.896c5.523 0 10-4.478 10-10v-13.854c0-5.522-4.477-10-10-10s-10 4.478-10 10v13.854c0 5.523 4.477 10 10 10z"/><path d="m276.638 144.896c5.523 0 10-4.478 10-10v-13.854c0-5.522-4.477-10-10-10s-10 4.478-10 10v13.854c0 5.523 4.477 10 10 10z"/><path d="m256 188.865c12.106 0 24.213-4.608 33.429-13.824 3.905-3.905 3.906-10.237 0-14.143-3.906-3.903-10.237-3.904-14.142 0-10.636 10.635-27.939 10.635-38.575 0-3.905-3.904-10.237-3.904-14.142 0-3.905 3.905-3.905 10.237 0 14.143 9.217 9.216 21.324 13.824 33.43 13.824z"/><path d="m286.289 341.683-14.301-3.043-7.331-12.679c-1.787-3.092-5.087-4.995-8.657-4.995s-6.87 1.903-8.657 4.995l-7.331 12.679-14.301 3.043c-3.494.744-6.326 3.295-7.429 6.691-1.104 3.397-.311 7.126 2.079 9.78l9.775 10.858-1.524 14.546c-.373 3.552 1.178 7.032 4.066 9.132 2.889 2.1 6.677 2.498 9.941 1.048l13.381-5.948 13.381 5.948c1.3.578 2.684.862 4.061.862 2.079 0 4.143-.647 5.88-1.91 2.889-2.1 4.439-5.58 4.066-9.132l-1.524-14.546 9.775-10.858c2.39-2.654 3.182-6.383 2.079-9.78-1.104-3.396-3.936-5.947-7.429-6.691zm-22.267 17.255c-1.895 2.104-2.809 4.915-2.513 7.732l.185 1.764-1.632-.726c-1.293-.575-2.678-.862-4.062-.862s-2.769.287-4.062.862l-1.632.726.185-1.764c.295-2.817-.618-5.628-2.513-7.732l-1.168-1.298 1.715-.364c2.769-.59 5.159-2.325 6.576-4.776l.899-1.556.899 1.556c1.417 2.451 3.807 4.187 6.576 4.776l1.715.364z"/></g></svg>