<svg id="Capa_1" enable-background="new 0 0 512 512" height="512" viewBox="0 0 512 512" width="512" xmlns="http://www.w3.org/2000/svg"><g><path d="m136.783 88.034c-45.603 0-82.703 36.9-82.703 82.257s37.1 82.257 82.703 82.257 82.703-36.9 82.703-82.257-37.1-82.257-82.703-82.257zm0 144.515c-34.574 0-62.703-27.929-62.703-62.257s28.128-62.257 62.703-62.257 62.703 27.929 62.703 62.257-28.129 62.257-62.703 62.257z"/><path d="m375.217 88.034c-45.603 0-82.702 36.9-82.702 82.257s37.1 82.258 82.702 82.258 82.703-36.901 82.703-82.258-37.101-82.257-82.703-82.257zm0 144.515c-34.574 0-62.702-27.929-62.702-62.258s28.128-62.257 62.702-62.257 62.703 27.929 62.703 62.257c0 34.33-28.129 62.258-62.703 62.258z"/><path d="m375.217 34.285c-51.066 0-95.686 27.969-119.179 69.311-9.853-17.432-23.484-32.509-40.162-44.28-23.2-16.375-50.55-25.031-79.093-25.031-75.422 0-136.783 61.012-136.783 136.007 0 31.129 10.294 60.423 29.769 84.716 17.224 21.484 40.807 37.397 67.039 45.383v47.927h-32.727c-5.523 0-10 4.477-10 10v59.584c0 5.523 4.477 10 10 10h32.727v39.813c0 5.523 4.477 10 10 10h59.951c5.523 0 10-4.477 10-10v-39.813h32.727c5.523 0 10-4.477 10-10v-59.584c0-5.523-4.477-10-10-10h-32.727v-47.919c33.814-10.234 62.077-32.983 79.237-63.328 3.551 6.229 7.625 12.221 12.208 17.938 17.224 21.484 40.807 37.397 67.038 45.383v51.542h-37.85c-3.771 0-7.222 2.122-8.924 5.487s-1.366 7.401.869 10.439l77.825 105.784c1.884 2.561 4.875 4.074 8.055 4.074s6.171-1.513 8.055-4.074l77.825-105.784c2.235-3.038 2.571-7.074.869-10.439s-5.152-5.487-8.924-5.487h-37.85v-51.542c26.232-7.985 49.813-23.898 67.038-45.382 19.476-24.293 29.77-53.587 29.77-84.717 0-74.996-61.36-136.008-136.783-136.008zm-210.8 248.749c-4.492 1.082-7.658 5.101-7.658 9.722v65.562c0 5.523 4.477 10 10 10h32.727v39.584h-32.727c-5.523 0-10 4.477-10 10v39.813h-39.951v-39.813c0-5.523-4.477-10-10-10h-32.727v-39.584h32.727c5.523 0 10-4.477 10-10v-65.562c0-4.621-3.166-8.64-7.658-9.722-52.49-12.646-89.15-59.008-89.15-112.742 0-63.966 52.389-116.007 116.783-116.007 47.772 0 91.029 29.3 108.584 73.217-4.498 13.46-6.934 27.848-6.934 42.79 0 14.831 2.337 29.246 6.89 42.902-13.996 34.956-44.033 60.956-80.906 69.84zm238.432 0c-.028.006-.056.013-.084.021-4.64 1.16-7.707 5.389-7.572 9.984v68.893c0 5.523 4.478 10 10 10h28.078l-58.054 78.909-58.054-78.909h28.078c5.522 0 10-4.477 10-10l.001-69.176c0-4.621-3.166-8.64-7.658-9.722-52.49-12.646-89.15-59.008-89.15-112.743 0-63.966 52.389-116.007 116.783-116.007s116.783 52.041 116.783 116.008c0 53.735-36.66 100.097-89.151 112.742z"/></g></svg>