<svg id="Capa_1" enable-background="new 0 0 512 512" height="512" viewBox="0 0 512 512" width="512" xmlns="http://www.w3.org/2000/svg"><g><path d="m502 177.208h-98.32l22.159-103.149c.606-2.823-.037-5.77-1.764-8.083s-4.37-3.768-7.249-3.988c-2.554-.196-4.192-1.409-8.223-4.827-6.754-5.727-16.004-13.571-36.315-13.571-17.439 0-26.859 5.97-34.427 10.767-6.752 4.279-12.086 7.66-23.721 7.66-11.636 0-16.969-3.38-23.722-7.66-7.569-4.797-16.988-10.767-34.428-10.767-17.439 0-26.858 5.97-34.427 10.767-6.752 4.279-12.085 7.66-23.72 7.66-11.634 0-16.967-3.38-23.719-7.66-7.568-4.797-16.988-10.767-34.427-10.767-20.311 0-29.56 7.845-36.313 13.573-4.027 3.416-5.664 4.628-8.212 4.824-2.878.221-5.521 1.676-7.247 3.989-1.727 2.313-2.37 5.26-1.763 8.083l22.159 103.149h-98.321c-5.523 0-10 4.477-10 10v271.202c0 5.523 4.477 10 10 10h492c5.523 0 10-4.477 10-10v-271.202c0-5.522-4.477-10-10-10zm-376.369-14.645c3.237-1.691 7.3-2.793 14.069-2.793 11.632 0 16.964 3.38 23.715 7.661 7.568 4.798 16.987 10.769 34.424 10.769h.059l.797 5.984c.67 5.027 4.964 8.681 9.9 8.681.44 0 .885-.029 1.333-.088 5.475-.729 9.321-5.758 8.592-11.233l-.869-6.521c6.023-2.142 10.586-5.034 14.621-7.592 6.751-4.279 12.084-7.66 23.716-7.66 11.639 0 16.973 3.381 23.727 7.662 4.037 2.559 8.602 5.453 14.63 7.595l-.868 6.515c-.729 5.475 3.118 10.503 8.592 11.233.448.06.893.088 1.333.088 4.936 0 9.23-3.654 9.9-8.681l.797-5.984h.039c17.436 0 26.855-5.97 34.423-10.768 6.753-4.281 12.088-7.662 23.727-7.662 6.771 0 10.836 1.105 14.078 2.801l-13.013 60.572h-234.71zm-9.31-90.147c5.583-4.735 10.405-8.825 23.376-8.825 11.635 0 16.968 3.38 23.72 7.66 7.569 4.797 16.988 10.767 34.426 10.767 17.439 0 26.858-5.97 34.427-10.767 6.752-4.279 12.085-7.66 23.72-7.66s16.969 3.38 23.722 7.66c7.569 4.797 16.989 10.767 34.428 10.767s26.858-5.97 34.427-10.767c6.752-4.279 12.086-7.66 23.721-7.66 12.973 0 17.795 4.089 23.38 8.825 2.464 2.09 5.25 4.452 8.712 6.31l-13.736 63.939c-4.821-1.756-10.717-2.895-18.354-2.895-17.444 0-26.865 5.972-34.435 10.77-6.22 3.943-11.236 7.122-21.083 7.598l4.19-31.461c.729-5.475-3.118-10.503-8.592-11.233-5.477-.727-10.504 3.118-11.233 8.592l-4.055 30.439c-2.256-1.145-4.377-2.489-6.659-3.936-7.57-4.798-16.991-10.77-34.434-10.77-17.437 0-26.855 5.97-34.423 10.768-2.28 1.445-4.398 2.788-6.651 3.932l-4.054-30.433c-.73-5.475-5.764-9.324-11.233-8.592-5.475.729-9.321 5.758-8.592 11.233l4.191 31.462c-9.861-.473-14.879-3.654-21.103-7.6-7.568-4.798-16.987-10.769-34.424-10.769-7.635 0-13.528 1.136-18.346 2.889l-13.736-63.938c3.459-1.857 6.241-4.217 8.703-6.305zm375.679 375.994h-472v-251.202h92.617l5.572 25.935h-27.045c-5.523 0-10 4.477-10 10s4.477 10 10 10h329.713c5.523 0 10-4.477 10-10s-4.477-10-10-10h-27.045l5.571-25.935h92.617z"/><path d="m359.771 299.096c-27.876-10.643-64.73-16.504-103.771-16.504s-75.895 5.861-103.771 16.504c-30.914 11.803-47.939 28.707-47.939 47.599s17.025 35.796 47.939 47.599c27.876 10.643 64.73 16.504 103.771 16.504s75.895-5.861 103.771-16.504c30.914-11.803 47.939-28.707 47.939-47.599s-17.025-35.797-47.939-47.599zm-103.771 91.702c-81.603 0-131.71-25.687-131.71-44.103s50.107-44.104 131.71-44.104 131.71 25.688 131.71 44.104-50.107 44.103-131.71 44.103z"/></g></svg>