<svg id="Capa_1" enable-background="new 0 0 511.991 511.991" height="512" viewBox="0 0 511.991 511.991" width="512" xmlns="http://www.w3.org/2000/svg"><g><path d="m421.236 18.775c-14.637-14.666-35.211-21.23-55.435-17.945l-284.992 43.234c-.012.002-.024.003-.037.005-4.908.679-8.571 4.871-8.571 9.825v.073 448.024c0 5.523 4.477 10 10 10h293.864c35.195 0 63.726-28.531 63.726-63.726v-383.645c0-17.111-6.469-33.734-18.555-45.845zm-52.379 1.82c.038-.005.075-.012.113-.018 12.708-2.075 25.618 1.513 35.423 9.846 9.177 7.799 14.683 18.951 15.333 30.892-11.413-10.751-26.781-17.348-43.661-17.348h-161.274zm50.934 427.67c0 24.111-19.615 43.726-43.726 43.726h-283.864v-428.024h283.864c24.111 0 43.726 19.615 43.726 43.726z"/><path d="m200.902 345.88c-.007-.04-.015-.079-.023-.118-1.016-4.981-5.27-8.661-10.346-8.948-5.079-.276-9.718 2.89-11.289 7.725-.037.114-.072.229-.105.345l-6.398 22.42-6.65-22.517c-.035-.12-.073-.239-.113-.357-1.622-4.819-6.29-7.944-11.372-7.605-5.073.341-9.288 4.066-10.25 9.059-.007.038-.015.075-.021.113l-9.371 51.861c-.982 5.435 2.628 10.637 8.062 11.619 5.437.98 10.637-2.627 11.619-8.062l2.777-15.369 4.731 16.019c.035.119.072.237.112.355 1.538 4.572 5.8 7.633 10.619 7.632h.058c4.843-.025 9.102-3.135 10.599-7.74.037-.115.073-.23.106-.347l4.563-15.991 2.974 15.542c1.038 5.424 6.279 8.978 11.701 7.942 5.424-1.038 8.98-6.276 7.942-11.701z"/><path d="m367.083 345.881c-.008-.041-.016-.082-.024-.123-1.018-4.98-5.273-8.658-10.348-8.944-5.084-.29-9.717 2.891-11.287 7.725-.037.114-.072.229-.105.345l-6.398 22.42-6.651-22.517c-.035-.119-.072-.236-.111-.354-1.621-4.82-6.301-7.943-11.371-7.609-5.075.341-9.291 4.066-10.252 9.06-.007.038-.015.075-.021.113l-9.371 51.861c-.982 5.435 2.628 10.637 8.062 11.619 5.438.98 10.637-2.627 11.619-8.062l2.777-15.369 4.731 16.019c.035.119.072.237.112.355 1.538 4.572 5.8 7.633 10.619 7.632h.058c4.843-.025 9.103-3.135 10.6-7.74.037-.115.073-.23.106-.347l4.563-15.99 2.973 15.541c1.038 5.425 6.282 8.979 11.701 7.943 5.425-1.038 8.981-6.276 7.943-11.701z"/><path d="m255.996 337.688c-20.213 0-36.658 16.431-36.658 36.628s16.445 36.628 36.658 36.628 36.658-16.431 36.658-36.628-16.445-36.628-36.658-36.628zm0 53.256c-9.185 0-16.658-7.459-16.658-16.628s7.473-16.628 16.658-16.628 16.658 7.459 16.658 16.628-7.473 16.628-16.658 16.628z"/><path d="m204.389 277.751c10.359 8.555 20.145 15.917 28.299 21.289 13.755 9.062 19.549 10.284 23.403 10.284 9.069 0 26.459-10.602 51.69-31.511 17.397-14.418 39.147-34.621 48.016-48.082 6.74-10.23 14.336-24.62 13.232-45.253-.875-16.295-7.785-31.594-19.458-43.079-11.87-11.678-27.379-18.11-43.671-18.11-23.685 0-40.326 17.211-49.663 27.347-8.88-9.987-25.676-27.347-50.142-27.347-16.294 0-31.804 6.432-43.674 18.11-11.673 11.484-18.583 26.784-19.458 43.081-1.118 20.9 7.02 35.839 13.237 45.258 8.789 13.315 30.656 33.532 48.189 48.013zm-41.455-92.202c1.251-23.303 20.613-42.261 43.161-42.261 17.048 0 29.407 14.049 36.791 22.443 4.594 5.223 7.629 8.673 13.112 8.673 5.565 0 8.91-3.643 13.974-9.157 7.542-8.213 20.164-21.959 35.929-21.959 22.546 0 41.907 18.958 43.158 42.259.626 11.708-2.353 21.63-9.962 33.179-5.986 9.086-23.056 26.106-42.474 42.352-22.216 18.585-36.244 26.926-40.505 28.154-4.264-1.264-18.332-9.667-40.667-28.292-19.543-16.297-36.646-33.264-42.559-42.221-7.608-11.522-10.586-21.442-9.958-33.17z"/></g></svg>