<svg id="Capa_1" enable-background="new 0 0 512 512" height="512" viewBox="0 0 512 512" width="512" xmlns="http://www.w3.org/2000/svg"><g><path d="m458.939 198.424c-.992-52.54-22.068-101.943-59.354-139.126l-.089-.092c-.049-.051-.098-.101-.148-.15-38.311-38.083-89.221-59.056-143.352-59.056-54.2 0-105.165 21.034-143.505 59.226-38.348 38.187-59.467 88.98-59.467 143.024 0 51.004 19.081 99.688 53.729 137.083 2.603 2.809 45.585 41.116 84.339 75.55-36.023 9.111-56.978 25.32-56.978 44.817 0 15.755 13.934 29.699 39.234 39.265 22.235 8.405 51.588 13.035 82.652 13.035s60.417-4.63 82.652-13.035c25.301-9.565 39.234-23.51 39.234-39.265 0-19.475-20.967-35.698-56.985-44.815 38.752-34.432 81.731-72.732 84.326-75.532 35.627-38.453 54.702-88.502 53.712-140.929zm-101.053 261.276c0 4.895-6.89 13.216-26.307 20.557-20.03 7.572-46.872 11.743-75.579 11.743s-55.549-4.171-75.579-11.743c-19.417-7.341-26.307-15.662-26.307-20.557 0-9.022 19.433-21.847 55.517-28.353 17.841 15.838 32.871 29.161 39.734 35.243 1.893 1.677 4.262 2.516 6.632 2.516s4.74-.839 6.632-2.516c6.863-6.082 21.895-19.406 39.737-35.244 36.08 6.509 55.52 19.36 55.52 28.354zm32.733-134.009c-4.602 4.61-80.569 72.136-134.623 120.053-54.051-47.917-130.017-115.444-134.633-120.069-31.171-33.678-48.339-77.508-48.339-123.425 0-48.686 19.028-94.446 53.58-128.854 34.568-34.433 80.52-53.396 129.392-53.396 48.775 0 94.649 18.883 129.179 53.167l.083.086c.046.048.093.096.14.143 69.662 69.404 71.948 180.208 5.221 252.295z"/><path d="m256 57.542c-80.389 0-145.791 65.33-145.791 145.631s65.402 145.631 145.791 145.631 145.791-65.33 145.791-145.631-65.402-145.631-145.791-145.631zm0 271.262c-69.361 0-125.791-56.357-125.791-125.631s56.429-125.631 125.791-125.631 125.79 56.357 125.79 125.631-56.429 125.631-125.79 125.631z"/><path d="m325.238 166.744c-1.683-4.576-6.421-7.265-11.216-6.378l-12.728 2.371c-9.677 1.803-17.762 8.022-22.122 16.469-2.068-.446-4.217-.846-6.438-1.197-6.173-.977-11.683-.773-16.01-.204-6.675-12.661-19.206-21.333-33.94-22.909-22.044-2.363-42.812 12.807-47.28 34.526-2.428 11.805.003 23.749 6.846 33.633 6.846 9.89 17.157 16.37 29.034 18.249 8.028 1.271 16.2.266 23.61-2.829 6.876 5.171 12.244 8.502 26.474 10.752 5.719.905 10.979 1.358 15.816 1.358 9.164 0 16.798-1.63 23.104-4.907 9.372-4.871 15.237-13.208 16.962-24.111.125-.79.225-1.578.3-2.36l14.942-9.069c4.089-2.482 5.848-7.513 4.196-12.002zm-22.706 38.241c-3.268 1.984-5.119 5.657-4.769 9.465.113 1.228.056 2.57-.168 3.992-.733 4.632-2.716 7.559-6.431 9.489-3.866 2.01-11.612 3.906-26.572 1.541-10.581-1.674-12.85-3.395-18.332-7.553-1.294-.981-2.762-2.095-4.47-3.313-1.734-1.238-3.77-1.861-5.811-1.861-1.835 0-3.673.504-5.298 1.52-4.813 3.007-10.555 4.175-16.174 3.285-6.428-1.018-12.008-4.525-15.714-9.879-3.703-5.348-5.017-11.818-3.7-18.22 2.416-11.744 13.643-19.942 25.563-18.669 9.757 1.044 17.729 7.82 20.309 17.264.744 2.724 2.605 5.006 5.123 6.282 2.519 1.279 5.458 1.433 8.096.422.063-.024 6.728-2.361 15.424-.987 4.885.773 9.248 1.802 12.967 3.059 2.791.941 5.855.607 8.375-.918 2.521-1.525 4.241-4.083 4.701-6.993l.18-1.133c.749-4.732 4.416-8.501 9.125-9.378l4.428-.825 5.79 15.738z"/></g></svg>