<svg id="Capa_1" enable-background="new 0 0 512 512" height="512" viewBox="0 0 512 512" width="512" xmlns="http://www.w3.org/2000/svg"><g><path d="m468.297 35.403h-424.594c-24.098 0-43.703 19.606-43.703 43.704v293.043c0 24.098 19.605 43.703 43.703 43.703h136.759l-16.444 40.743h-62.002c-5.522 0-10 4.477-10 10s4.478 10 10 10h307.969c5.522 0 10-4.477 10-10s-4.478-10-10-10h-62.002l-16.445-40.743h136.759c24.098 0 43.703-19.605 43.703-43.703v-293.043c0-24.098-19.605-43.704-43.703-43.704zm-141.883 421.194h-140.828l16.444-40.743h107.94zm165.586-84.447c0 13.07-10.633 23.703-23.703 23.703h-424.594c-13.07.001-23.703-10.633-23.703-23.703v-293.043c0-13.07 10.633-23.704 23.703-23.704h424.594c13.07 0 23.703 10.633 23.703 23.704z"/><path d="m85.128 347.992h-20.681c-5.522 0-10 4.477-10 10s4.478 10 10 10h20.681c5.522 0 10-4.477 10-10s-4.478-10-10-10z"/><path d="m153.681 347.992h-20.681c-5.522 0-10 4.477-10 10s4.478 10 10 10h20.681c5.522 0 10-4.477 10-10s-4.478-10-10-10z"/><path d="m222.234 347.992h-20.682c-5.522 0-10 4.477-10 10s4.478 10 10 10h20.682c5.522 0 10-4.477 10-10s-4.477-10-10-10z"/><path d="m363.248 99.88c-2.19-4.992-7.977-7.309-13.006-5.212-70.461 29.381-118.023 29.381-188.484 0-5.03-2.097-10.816.22-13.006 5.212l-78.299 178.438c-1.107 2.522-1.124 5.391-.048 7.926 1.077 2.536 3.152 4.515 5.736 5.471 62.194 23.002 121.026 34.502 179.858 34.502s117.664-11.5 179.858-34.502c2.584-.956 4.659-2.935 5.736-5.471 1.076-2.536 1.06-5.404-.048-7.926zm-270.182 176.678 70.097-159.747c67.553 26.474 118.121 26.474 185.674 0l70.097 159.747c-112.256 39.432-213.612 39.432-325.868 0z"/><path d="m64 144.836c5.522 0 10-4.477 10-10v-25.433h29.968c5.522 0 10-4.477 10-10s-4.478-10-10-10h-39.968c-5.522 0-10 4.477-10 10v35.433c0 5.523 4.478 10 10 10z"/><path d="m448 89.403h-39.968c-5.522 0-10 4.477-10 10s4.478 10 10 10h29.968v25.433c0 5.523 4.478 10 10 10s10-4.477 10-10v-35.433c0-5.523-4.478-10-10-10z"/><path d="m323.129 178.834c-1.684-4.576-6.425-7.268-11.216-6.378l-13.866 2.583c-10.497 1.956-19.228 8.812-23.774 18.082-2.442-.542-4.992-1.024-7.639-1.442-6.932-1.098-13.077-.811-17.804-.137-7.06-13.831-20.601-23.327-36.562-25.035-23.555-2.516-45.758 13.689-50.532 36.902-2.595 12.617.003 25.384 7.317 35.949 7.316 10.569 18.337 17.496 31.03 19.505 8.752 1.384 17.662.239 25.705-3.224 7.582 5.727 13.278 9.39 28.853 11.854 6.186.979 11.871 1.469 17.091 1.469 9.834 0 18.013-1.742 24.753-5.246 9.947-5.17 16.174-14.026 18.008-25.614.156-.992.276-1.979.359-2.958l16.662-10.114c4.09-2.482 5.849-7.512 4.196-12.001zm-23.432 42.113c-3.269 1.984-5.12 5.658-4.77 9.465.13 1.408.065 2.946-.19 4.568-.711 4.489-2.876 18.152-36.972 12.758-11.748-1.859-14.272-3.773-20.37-8.398-1.406-1.066-2.999-2.274-4.848-3.594-1.734-1.237-3.771-1.861-5.812-1.861-1.834 0-3.673.504-5.297 1.519-5.426 3.39-11.897 4.707-18.231 3.704-7.244-1.146-13.534-5.101-17.712-11.134-4.173-6.029-5.654-13.322-4.171-20.536 2.723-13.238 15.375-22.485 28.815-21.044 10.996 1.176 19.981 8.814 22.89 19.458.744 2.724 2.605 5.005 5.123 6.283 2.518 1.277 5.458 1.432 8.096.422.07-.027 7.56-2.655 17.26-1.123 5.372.85 10.173 1.983 14.269 3.367 2.789.942 5.855.608 8.376-.917 2.521-1.524 4.241-4.083 4.702-6.992l.195-1.234c.875-5.527 5.158-9.93 10.659-10.955l5.564-1.037 6.822 18.542z"/></g></svg>