<svg id="Capa_1" enable-background="new 0 0 512.003 512.003" height="512" viewBox="0 0 512.003 512.003" width="512" xmlns="http://www.w3.org/2000/svg"><g><path d="m419.362 187.159h-97.249l-17.146-14.984c-5.061-7.653-4.319-17.817 1.91-24.529 1.543-1.663 3.146-3.316 4.696-4.915 2.084-2.148 4.053-4.178 5.845-6.189 13.391-15.023 20.765-34.38 20.765-54.507 0-22.598-9.011-43.649-25.371-59.276-16.396-15.662-37.95-23.723-60.677-22.667-20.217.928-39.35 9.334-53.875 23.671-14.533 14.345-23.165 33.355-24.306 53.53-1.233 21.806 6.039 42.786 20.477 59.077 1.849 2.086 3.886 4.187 6.043 6.411 1.528 1.576 3.109 3.206 4.629 4.842 6.243 6.719 6.993 16.894 1.93 24.551l-17.144 14.985h-97.248c-5.523 0-10 4.477-10 10v15.331c0 31.339 25.496 56.835 56.835 56.835h46.711c-37.164 23.246-61.923 64.464-61.923 111.339 0 72.421 59.098 131.339 131.738 131.339s131.738-58.918 131.738-131.339c0-46.875-24.759-88.093-61.923-111.339h46.711c31.339 0 56.835-25.496 56.835-56.835v-15.331c-.001-5.523-4.479-10-10.001-10zm-199.607-53.15c-1.666-1.793-3.322-3.5-4.923-5.152-1.997-2.059-3.882-4.003-5.433-5.753-10.914-12.313-16.41-28.182-15.477-44.682 1.77-31.28 27.743-56.911 59.13-58.352 17.214-.793 33.539 5.301 45.946 17.151 12.372 11.817 19.186 27.732 19.186 44.813 0 15.213-5.574 29.844-15.695 41.2-1.512 1.696-3.337 3.579-5.271 5.572-1.626 1.677-3.308 3.41-5 5.234-12.967 13.973-14.146 35.33-2.805 50.783.433.59.93 1.131 1.481 1.613l.826.722h-71.44l.828-.724c.552-.482 1.048-1.023 1.481-1.613 11.348-15.462 10.156-36.832-2.834-50.812zm36.247 235.652c19.688 0 37.204-9.454 48.223-24.049 7.387 10.105 11.481 22.392 11.481 35.052 0 32.795-26.783 59.476-59.704 59.476s-59.704-26.681-59.704-59.476c0-12.663 4.093-24.947 11.481-35.052 11.018 14.595 28.534 24.049 48.223 24.049zm40.333-60.169c0 22.149-18.094 40.168-40.333 40.168-22.24 0-40.333-18.02-40.333-40.168s18.093-40.168 40.333-40.168c22.239 0 40.333 18.019 40.333 40.168zm71.405 71.172c0 61.393-50.126 111.339-111.738 111.339-61.613 0-111.738-49.947-111.738-111.339 0-41.742 23.172-78.192 57.372-97.25-3.823 7.894-5.967 16.741-5.967 26.078 0 5.772.82 11.358 2.348 16.646-13.869 14.683-21.719 34.237-21.719 54.525 0 43.823 35.755 79.476 79.704 79.476s79.704-35.653 79.704-79.476c0-20.281-7.852-39.843-21.72-54.525 1.529-5.288 2.348-10.874 2.348-16.646 0-9.337-2.144-18.185-5.966-26.078 34.2 19.058 57.372 55.508 57.372 97.25zm41.622-168.175c0 20.311-16.524 36.835-36.835 36.835h-233.051c-20.311 0-36.835-16.524-36.835-36.835v-5.331h306.721z"/></g></svg>