<svg id="Capa_1" enable-background="new 0 0 512 512" height="512" viewBox="0 0 512 512" width="512" xmlns="http://www.w3.org/2000/svg"><g><path d="m291.58 291.15-17.799-3.788-9.124-15.779c-1.787-3.091-5.087-4.995-8.657-4.995s-6.87 1.904-8.657 4.995l-9.124 15.779-17.799 3.788c-3.494.743-6.326 3.294-7.429 6.691s-.311 7.125 2.079 9.78l12.167 13.515-1.897 18.104c-.373 3.552 1.178 7.032 4.066 9.132 2.889 2.099 6.677 2.5 9.941 1.048l16.653-7.402 16.653 7.403c1.3.578 2.684.862 4.061.862 2.079 0 4.143-.648 5.88-1.911 2.889-2.1 4.439-5.58 4.066-9.132l-1.897-18.104 12.167-13.515c2.39-2.655 3.182-6.383 2.079-9.78s-3.936-5.947-7.429-6.691zm-24.659 19.912c-1.895 2.105-2.809 4.916-2.513 7.733l.558 5.321-4.904-2.18c-1.293-.575-2.677-.862-4.062-.862s-2.769.288-4.062.862l-4.904 2.18.558-5.321c.295-2.817-.618-5.628-2.513-7.733l-3.56-3.954 5.213-1.11c2.769-.589 5.159-2.324 6.576-4.775l2.692-4.657 2.692 4.657c1.417 2.451 3.807 4.187 6.576 4.775l5.213 1.11z"/><path d="m326.923 0h-7.548c-18.46 0-33.479 14.994-33.479 33.424v1.604c0 10.133 4.563 19.629 12.518 26.053 15.916 12.852 25.044 31.921 25.044 52.317 0 17.873-7.059 34.747-19.876 47.512-12.87 12.818-29.899 19.836-47.864 19.764-37.041-.15-67.175-30.33-67.175-67.275 0-20.342 9.088-39.379 24.935-52.229 8.025-6.508 12.628-16.04 12.628-26.149v-1.596c-.002-18.431-15.021-33.425-33.481-33.425h-7.548c-71.004 0-128.769 57.641-128.769 128.49v287.045c0 53.19 43.365 96.464 96.668 96.464h206.049c53.303 0 96.668-43.274 96.668-96.464v-287.045c-.001-70.849-57.766-128.49-128.77-128.49zm-8.108 338.052 5.154 49.177c.509 4.86-1.467 9.296-5.423 12.17-3.903 2.837-8.867 3.36-13.278 1.4l-45.206-20.095c-2.586-1.149-5.538-1.149-8.124 0l-45.206 20.095c-4.41 1.961-9.374 1.438-13.278-1.4-3.956-2.874-5.932-7.31-5.423-12.169l5.154-49.177c.295-2.817-.618-5.628-2.513-7.733l-33.093-36.758c-3.271-3.633-4.281-8.382-2.771-13.03 1.512-4.653 5.125-7.906 9.915-8.926l48.391-10.298c2.769-.589 5.159-2.325 6.576-4.775l24.753-42.813c2.449-4.235 6.662-6.665 11.558-6.665s9.109 2.429 11.558 6.665l24.753 42.813c1.417 2.451 3.807 4.187 6.576 4.775l48.391 10.298c4.79 1.02 8.403 4.272 9.915 8.926 1.509 4.648.5 9.397-2.772 13.03l-33.092 36.758c-1.897 2.104-2.81 4.915-2.515 7.732zm116.877 77.484c0 42.163-34.393 76.464-76.668 76.464h-206.048c-42.275 0-76.668-34.302-76.668-76.464v-287.046c0-59.822 48.793-108.49 108.769-108.49h7.548c7.433 0 13.479 6.022 13.479 13.424v1.596c0 4.053-1.905 7.922-5.226 10.615-20.55 16.666-32.337 41.364-32.337 67.763 0 39.724 26.838 73.418 63.368 83.901-1.811 1.905-3.418 4.049-4.782 6.408l-22.527 38.963-44.042 9.373c-11.79 2.509-21.051 10.849-24.773 22.309-3.721 11.455-1.13 23.639 6.929 32.591l30.115 33.451-4.69 44.752c-1.254 11.976 3.813 23.352 13.556 30.433 5.849 4.25 12.649 6.421 19.533 6.421 4.591 0 9.22-.966 13.626-2.925l41.146-18.29 41.144 18.29c11.013 4.896 23.41 3.589 33.16-3.496 9.743-7.081 14.811-18.458 13.556-30.434l-4.69-44.751 30.115-33.451c8.06-8.952 10.65-21.136 6.93-32.591-3.722-11.46-12.983-19.8-24.773-22.309l-44.042-9.373-22.527-38.963c-1.367-2.364-2.979-4.512-4.794-6.42 14.034-4.025 26.931-11.563 37.617-22.206 16.614-16.546 25.764-38.453 25.763-61.683 0-26.47-11.838-51.21-32.479-67.878-3.23-2.608-5.083-6.433-5.083-10.492v-1.604c0-7.402 6.047-13.424 13.479-13.424h7.548c59.976 0 108.769 48.668 108.769 108.49v287.046z"/><path d="m186.175 446.275h-9.404c-5.523 0-10 4.477-10 10s4.477 10 10 10h9.404c5.523 0 10-4.477 10-10s-4.477-10-10-10z"/><path d="m136.49 446.275h-9.404c-5.523 0-10 4.477-10 10s4.477 10 10 10h9.404c5.523 0 10-4.477 10-10s-4.477-10-10-10z"/><path d="m235.859 446.275h-9.404c-5.523 0-10 4.477-10 10s4.477 10 10 10h9.404c5.523 0 10-4.477 10-10s-4.477-10-10-10z"/><path d="m285.544 446.275h-9.404c-5.523 0-10 4.477-10 10s4.477 10 10 10h9.404c5.523 0 10-4.477 10-10s-4.477-10-10-10z"/><path d="m335.229 446.275h-9.404c-5.523 0-10 4.477-10 10s4.477 10 10 10h9.404c5.523 0 10-4.477 10-10s-4.477-10-10-10z"/><path d="m384.915 446.275h-9.404c-5.523 0-10 4.477-10 10s4.477 10 10 10h9.404c5.523 0 10-4.477 10-10s-4.477-10-10-10z"/></g></svg>