<svg id="Capa_1" enable-background="new 0 0 512 512" height="512" viewBox="0 0 512 512" width="512" xmlns="http://www.w3.org/2000/svg"><g><path d="m293.263 284.806c-3.136-1.747-6.032-3.938-8.607-6.514-2.564-2.563-4.747-5.456-6.489-8.597-2.258-4.071-7.029-6.048-11.5-4.763-6.9 1.978-14.433 1.978-21.333 0-4.474-1.284-9.243.692-11.5 4.763-1.742 3.141-3.925 6.034-6.489 8.597-2.575 2.576-5.471 4.767-8.607 6.514-4.06 2.261-6.027 7.02-4.749 11.487.986 3.447 1.486 7.031 1.486 10.654 0 3.624-.5 7.208-1.486 10.655-1.278 4.467.689 9.227 4.749 11.487 3.135 1.746 6.031 3.938 8.606 6.513 2.577 2.577 4.769 5.474 6.514 8.608 2.261 4.06 7.022 6.025 11.488 4.749 6.896-1.974 14.414-1.974 21.31 0 .913.261 1.837.387 2.751.387 3.556 0 6.938-1.906 8.736-5.136 1.746-3.135 3.938-6.031 6.514-8.607s5.472-4.768 8.607-6.514c4.06-2.261 6.027-7.02 4.749-11.487-.986-3.446-1.486-7.031-1.486-10.655 0-3.623.5-7.208 1.486-10.654 1.277-4.467-.69-9.226-4.75-11.487zm-16.084 30.909c-2.352 1.741-4.58 3.662-6.666 5.748-2.085 2.085-4.005 4.313-5.746 6.665-5.786-.869-11.748-.869-17.534 0-1.741-2.352-3.661-4.58-5.747-6.666-2.085-2.085-4.313-4.005-6.665-5.747.435-2.893.653-5.823.653-8.767s-.219-5.874-.653-8.767c2.352-1.741 4.58-3.661 6.665-5.746 2.083-2.083 4.001-4.312 5.74-6.667 5.79.871 11.757.871 17.547 0 1.739 2.355 3.658 4.584 5.74 6.667 2.085 2.085 4.313 4.005 6.665 5.746-.435 2.893-.653 5.823-.653 8.767s.219 5.874.654 8.767z"/><path d="m326.923 0h-7.548c-18.46 0-33.479 14.994-33.479 33.424v1.604c0 10.133 4.563 19.629 12.518 26.053 15.916 12.852 25.044 31.921 25.044 52.317 0 17.873-7.059 34.747-19.876 47.512-12.804 12.752-29.692 19.764-47.585 19.764-.092 0-.187 0-.279 0-37.041-.15-67.175-30.33-67.175-67.275 0-20.342 9.088-39.379 24.935-52.229 8.025-6.508 12.628-16.04 12.628-26.149v-1.596c-.002-18.431-15.021-33.425-33.481-33.425h-7.548c-71.004 0-128.769 57.641-128.769 128.49v287.045c0 53.19 43.365 96.464 96.668 96.464h206.049c53.303 0 96.668-43.274 96.668-96.464v-287.045c-.001-70.849-57.766-128.49-128.77-128.49zm17.375 277.094c10.853 6.045 17.595 17.484 17.595 29.854 0 12.36-6.735 23.796-17.576 29.844-4.052 2.26-6.017 7.01-4.746 11.472.866 3.042 1.306 6.211 1.306 9.422 0 9.119-3.551 17.692-9.998 24.14-6.449 6.448-15.022 10-24.141 10-3.211 0-6.381-.439-9.422-1.306-4.463-1.272-9.213.694-11.472 4.746-6.048 10.841-17.483 17.576-29.844 17.576s-23.796-6.735-29.844-17.576c-1.799-3.226-5.178-5.129-8.732-5.129-.91 0-1.831.125-2.74.383-3.042.866-6.211 1.306-9.422 1.306-9.12 0-17.692-3.551-24.14-9.999s-9.999-15.021-9.999-24.14c0-3.211.439-6.381 1.306-9.422 1.271-4.462-.694-9.212-4.746-11.472-10.841-6.048-17.576-17.483-17.576-29.844 0-12.369 6.742-23.809 17.595-29.854 4.054-2.258 6.022-7.009 4.752-11.473-3.4-11.949-.079-24.805 8.668-33.552 6.448-6.448 15.021-9.999 24.14-9.999 3.211 0 6.381.439 9.421 1.306 4.463 1.271 9.214-.693 11.474-4.746 6.048-10.842 17.484-17.577 29.844-17.577s23.795 6.735 29.844 17.577c2.261 4.052 7.012 6.015 11.474 4.746 3.04-.866 6.209-1.306 9.421-1.306 9.119 0 17.692 3.551 24.14 10 8.747 8.746 12.068 21.602 8.668 33.551-1.272 4.463.696 9.214 4.75 11.472zm91.394 138.442c0 42.163-34.393 76.464-76.668 76.464h-206.048c-42.275 0-76.668-34.302-76.668-76.464v-287.046c0-59.822 48.793-108.49 108.769-108.49h7.548c7.433 0 13.479 6.022 13.479 13.424v1.596c0 4.053-1.905 7.922-5.226 10.615-20.55 16.666-32.337 41.364-32.337 67.763 0 35.819 21.822 66.736 52.895 80.154-3.193 2.65-6.097 5.677-8.638 9.038-2.488-.346-5.006-.52-7.537-.52-14.462 0-28.058 5.632-38.283 15.857-12.085 12.085-17.645 29.107-15.316 45.803-13.452 10.159-21.557 26.125-21.557 43.217 0 17.081 8.097 33.042 21.536 43.202-.346 2.488-.52 5.006-.52 7.536 0 14.461 5.631 28.056 15.856 38.282s23.821 15.857 38.283 15.857c2.53 0 5.048-.174 7.536-.52 10.16 13.439 26.121 21.536 43.202 21.536s33.042-8.097 43.202-21.536c2.488.346 5.006.52 7.536.52 14.46 0 28.056-5.631 38.283-15.857 10.225-10.226 15.856-23.821 15.856-38.282 0-2.53-.174-5.048-.52-7.536 13.439-10.16 21.536-26.121 21.536-43.202 0-17.092-8.105-33.059-21.557-43.217 2.329-16.696-3.23-33.717-15.316-45.803-10.226-10.226-23.822-15.857-38.282-15.857-2.531 0-5.049.174-7.537.52-2.545-3.367-5.454-6.398-8.654-9.05 9.981-4.314 19.18-10.523 27.147-18.458 16.614-16.546 25.764-38.453 25.763-61.683 0-26.47-11.838-51.21-32.479-67.878-3.23-2.608-5.083-6.433-5.083-10.492v-1.604c0-7.402 6.047-13.424 13.479-13.424h7.548c59.976 0 108.769 48.668 108.769 108.49v287.045z"/><path d="m186.175 446.275h-9.404c-5.523 0-10 4.477-10 10s4.477 10 10 10h9.404c5.523 0 10-4.477 10-10s-4.477-10-10-10z"/><path d="m136.49 446.275h-9.404c-5.523 0-10 4.477-10 10s4.477 10 10 10h9.404c5.523 0 10-4.477 10-10s-4.477-10-10-10z"/><path d="m235.859 446.275h-9.404c-5.523 0-10 4.477-10 10s4.477 10 10 10h9.404c5.523 0 10-4.477 10-10s-4.477-10-10-10z"/><path d="m285.544 446.275h-9.404c-5.523 0-10 4.477-10 10s4.477 10 10 10h9.404c5.523 0 10-4.477 10-10s-4.477-10-10-10z"/><path d="m335.229 446.275h-9.404c-5.523 0-10 4.477-10 10s4.477 10 10 10h9.404c5.523 0 10-4.477 10-10s-4.477-10-10-10z"/><path d="m384.915 446.275h-9.404c-5.523 0-10 4.477-10 10s4.477 10 10 10h9.404c5.523 0 10-4.477 10-10s-4.477-10-10-10z"/></g></svg>