<svg id="Capa_1" enable-background="new 0 0 512 512" height="512" viewBox="0 0 512 512" width="512" xmlns="http://www.w3.org/2000/svg"><g><path d="m464.316 377.319h-6.215c5.599-7.824 8.898-17.406 8.898-27.752 0-26.305-21.4-47.706-47.706-47.706h-7.315c5.599-7.824 8.898-17.406 8.898-27.752 0-23.714-17.392-43.441-40.09-47.098 5.867-7.933 9.341-17.745 9.341-28.36 0-26.306-21.4-47.707-47.706-47.707h-49.231c.067-5.965 2.147-11.545 5.873-15.739 9.382-10.561 14.549-24.166 14.549-38.31 0-15.919-6.339-30.74-17.849-41.731-11.487-10.971-26.566-16.617-42.472-15.876-14.183.653-27.601 6.565-37.782 16.648s-16.229 23.447-17.028 37.631c-.864 15.321 4.23 30.065 14.348 41.518 3.795 4.296 5.913 9.918 5.981 15.86h-49.232c-26.306 0-47.706 21.401-47.706 47.752 0 10.593 3.471 20.39 9.335 28.315-22.695 3.66-40.084 23.39-40.084 47.143 0 10.323 3.296 19.891 8.891 27.706h-7.308c-26.306 0-47.706 21.401-47.706 47.752 0 10.323 3.296 19.891 8.891 27.706h-6.207c-26.293 0-47.684 21.411-47.684 47.729s21.391 47.729 47.684 47.729h416.633c26.293 0 47.684-21.411 47.684-47.729s-21.392-47.729-47.685-47.729zm-236.499-255.476c-6.606-7.479-9.934-17.121-9.367-27.15 1.07-18.991 16.779-34.553 35.762-35.427 10.395-.478 20.242 3.201 27.739 10.361 7.52 7.181 11.661 16.865 11.661 27.268 0 9.243-3.374 18.131-9.501 25.027-6.98 7.858-10.851 18.154-10.921 29.022h-34.38c-.07-10.824-3.967-21.149-10.993-29.101zm-58.239 49.102h172.844c15.277 0 27.706 12.429 27.706 27.752 0 15.277-12.429 27.706-27.706 27.706h-172.844c-15.277 0-27.706-12.429-27.706-27.751 0-15.278 12.429-27.707 27.706-27.707zm-58.455 103.164c0-15.277 12.429-27.706 27.706-27.706h234.342c15.277 0 27.706 12.429 27.706 27.752 0 15.277-12.429 27.706-27.706 27.706h-234.342c-15.277 0-27.706-12.429-27.706-27.752zm-46.123 75.458c0-15.277 12.429-27.706 27.706-27.706h326.588c15.277 0 27.706 12.429 27.706 27.752 0 15.277-12.429 27.706-27.706 27.706h-326.588c-15.277 0-27.706-12.429-27.706-27.752zm399.316 103.209h-416.632c-15.265 0-27.684-12.439-27.684-27.728 0-15.29 12.419-27.729 27.684-27.729h416.633c15.265 0 27.684 12.439 27.684 27.729-.001 15.289-12.42 27.728-27.685 27.728z"/></g></svg>