<svg id="Capa_1" enable-background="new 0 0 512 512" height="512" viewBox="0 0 512 512" width="512" xmlns="http://www.w3.org/2000/svg"><g><path d="m307.096 238.123h-.057c-3.902.022-8.005.039-11.542.046v-51.667c0-5.523-4.478-10-10-10s-10 4.477-10 10v61.621c0 4.872 3.511 9.035 8.312 9.856.718.123 1.172.201 8.113.201 3.332 0 8.159-.018 15.228-.057 5.522-.031 9.975-4.533 9.944-10.056-.031-5.504-4.501-9.944-9.998-9.944z"/><path d="m192.668 176.501c-5.522 0-10 4.477-10 10v61.673c0 5.523 4.478 10 10 10s10-4.477 10-10v-61.673c0-5.522-4.478-10-10-10z"/><path d="m167.043 205.823h-18.451c-5.522 0-10 4.477-10 10s4.478 10 10 10h6.821c-2.219 6.115-6.876 10.836-14.992 10.836-11.49 0-20.839-9.347-20.839-20.836s9.349-20.837 20.839-20.837c4.177 0 8.203 1.229 11.645 3.553 4.576 3.09 10.793 1.888 13.884-2.689 3.092-4.577 1.888-10.793-2.688-13.884-6.76-4.566-14.658-6.98-22.84-6.98-22.519 0-40.839 18.319-40.839 40.837 0 22.517 18.32 40.836 40.839 40.836 21.562 0 36.622-16.792 36.622-40.836-.001-5.523-4.479-10-10.001-10z"/><path d="m267.358 203.392c0-14.352-12.084-26.028-26.937-26.028h-16.39c-.003 0-.007 0-.01 0s-.006 0-.01 0c-5.522 0-10 4.477-10 10v61.673c0 5.523 4.478 10 10 10s10-4.477 10-10v-11.388l15.839 17.995c1.978 2.246 4.736 3.393 7.511 3.393 2.347 0 4.703-.821 6.604-2.494 4.146-3.649 4.548-9.968.899-14.113l-13.448-15.279c9.388-4.071 15.942-13.189 15.942-23.759zm-26.936-6.028c3.695 0 6.937 2.817 6.937 6.028s-3.241 6.028-6.937 6.028c-1.536 0-3.886.008-6.33.019-.011-2.344-.019-4.583-.019-6.047 0-1.264-.005-3.56-.012-6.028z"/><path d="m158.4 94.393c5.522 0 10-4.477 10-10v-11.175c0-5.523-4.478-10-10-10s-10 4.477-10 10v11.175c0 5.523 4.478 10 10 10z"/><path d="m158.4 150.408c5.522 0 10-4.477 10-10v-11.175c0-5.523-4.478-10-10-10s-10 4.477-10 10v11.175c0 5.523 4.478 10 10 10z"/><path d="m201.998 106.813c0-5.523-4.478-10-10-10h-11.176c-5.522 0-10 4.477-10 10s4.478 10 10 10h11.176c5.523 0 10-4.477 10-10z"/><path d="m124.803 116.813h11.177c5.522 0 10-4.477 10-10s-4.478-10-10-10h-11.177c-5.522 0-10 4.477-10 10s4.477 10 10 10z"/><path d="m434.881 130.147c-2.3-1.281-4.424-2.888-6.314-4.779-1.881-1.88-3.481-4-4.757-6.3-2.256-4.071-7.023-6.044-11.5-4.764-5.056 1.449-10.579 1.45-15.641 0-4.478-1.28-9.242.694-11.499 4.764-1.275 2.3-2.876 4.42-4.757 6.301-1.89 1.89-4.014 3.497-6.313 4.778-4.059 2.261-6.025 7.019-4.748 11.486.723 2.526 1.089 5.154 1.089 7.811s-.366 5.284-1.089 7.811c-1.277 4.467.689 9.226 4.748 11.486 2.3 1.281 4.424 2.888 6.313 4.779 1.89 1.89 3.498 4.014 4.778 6.313 2.261 4.06 7.022 6.027 11.486 4.749 5.055-1.445 10.57-1.446 15.623 0 .913.261 1.838.387 2.751.387 3.557 0 6.938-1.905 8.736-5.135 1.28-2.299 2.889-4.423 4.779-6.314 1.89-1.89 4.014-3.497 6.313-4.778 4.06-2.261 6.026-7.021 4.747-11.489-.723-2.525-1.089-5.152-1.089-7.808s.366-5.283 1.089-7.808c1.281-4.469-.686-9.228-4.745-11.49zm-15.975 25.265c-1.568 1.225-3.064 2.549-4.479 3.965-1.418 1.417-2.742 2.914-3.969 4.482-3.949-.488-7.987-.488-11.937 0-1.226-1.568-2.549-3.064-3.966-4.48-1.416-1.417-2.913-2.742-4.481-3.967.243-1.974.366-3.967.366-5.967s-.123-3.993-.366-5.967c1.568-1.225 3.065-2.55 4.481-3.967 1.416-1.416 2.738-2.912 3.962-4.481 3.953.488 7.993.488 11.944 0 1.225 1.569 2.548 3.066 3.963 4.482 1.417 1.416 2.913 2.74 4.481 3.965-.244 1.974-.367 3.967-.367 5.967s.124 3.994.368 5.968z"/><path d="m505.797 149.444c0-13.717-6.31-26.556-16.85-34.98 1.495-13.41-3.121-26.95-12.822-36.649-8.456-8.456-19.7-13.113-31.661-13.113-1.677 0-3.348.092-5.003.276-8.426-10.529-21.261-16.833-34.971-16.833s-26.545 6.304-34.971 16.833c-1.656-.184-3.327-.276-5.004-.276-1.613 0-3.213.086-4.795.253-38.561-41.342-92.722-64.955-149.373-64.955-112.566 0-204.144 91.52-204.144 204.012 0 40.148 11.577 78.771 33.535 112.072-2.563 5.766-4.137 12.101-4.496 18.785-.898 16.825 5.615 28.806 10.593 36.354 6.926 10.503 23.996 26.319 37.662 37.618 30.152 24.931 38.31 24.931 41.38 24.931 3.112 0 11.378 0 41.374-24.886 1.739-1.443 3.534-2.96 5.357-4.532 9.447 1.813 19.069 2.96 28.739 3.429v94.217c0 5.523 4.478 10 10 10s10-4.477 10-10v-94.223c38.764-1.917 76.421-14.928 108.025-37.295.409 1.263.783 2.543 1.119 3.838l1.099 4.235c1.145 4.41 5.124 7.489 9.68 7.489s8.535-3.079 9.68-7.489l1.099-4.235c6.098-23.509 24.491-41.9 48.002-47.998l4.235-1.099c4.41-1.144 7.489-5.124 7.489-9.68s-3.08-8.536-7.49-9.679l-4.234-1.098c-3.227-.837-6.358-1.906-9.374-3.188 8.798-16.104 15.33-33.223 19.49-51.079 11.92-1.255 22.836-7.265 30.296-16.587 1.656.184 3.326.276 5.003.276 11.96 0 23.204-4.657 31.662-13.114 8.456-8.457 13.113-19.7 13.113-31.659 0-1.677-.093-3.347-.276-5.003 10.528-8.425 16.832-21.259 16.832-34.968zm-380.894 264.112c-3.835-1.549-14.434-8.193-30.482-21.644-14.69-12.312-27.506-25.051-31.889-31.699-5.586-8.47-7.774-15.731-7.319-24.275.903-16.83 14.834-30.522 31.056-30.522 12.132 0 21.249 10.376 26.696 16.576 3.673 4.179 6.573 7.479 11.84 7.479 5.301 0 8.466-3.45 12.472-7.817 5.57-6.073 14.894-16.238 26.063-16.238 16.221 0 30.15 13.692 31.053 30.521.455 8.531-1.734 15.793-7.323 24.285-4.438 6.744-17.224 19.52-31.815 31.791-15.96 13.42-26.524 20.021-30.352 21.543zm215.366-65.403c-7.736-13.594-19.016-24.874-32.61-32.609 13.595-7.735 24.874-19.015 32.61-32.609 7.736 13.594 19.016 24.874 32.611 32.609-13.596 7.735-24.875 19.015-32.611 32.609zm10.778-91.386-1.099-4.235c-1.145-4.41-5.124-7.489-9.68-7.489s-8.535 3.079-9.68 7.489l-1.099 4.235c-6.098 23.509-24.491 41.9-48.001 47.998l-4.235 1.098c-4.41 1.143-7.49 5.123-7.49 9.679s3.079 8.536 7.489 9.68l4.235 1.099c15.514 4.024 28.8 13.401 37.795 26.07-31.704 23.34-69.197 35.633-108.937 35.633-6.687 0-13.369-.361-19.996-1.075 5.606-5.686 10.433-11.186 13.426-15.734 4.975-7.559 11.484-19.551 10.587-36.349-1.486-27.73-23.898-49.452-51.023-49.452-17.781 0-30.891 12.172-38.323 20.044-7.433-8.103-20.326-20.044-38.748-20.044-12.973 0-24.868 4.969-33.912 13.187-17.147-28.509-26.154-60.954-26.154-94.59.001-101.464 82.608-184.011 184.145-184.011 48.27 0 94.537 19.006 128.834 52.542-2.242 1.545-4.36 3.306-6.326 5.272-9.7 9.7-14.316 23.24-12.821 36.649-10.54 8.424-16.851 21.263-16.851 34.98 0 13.708 6.305 26.543 16.835 34.969-.184 1.656-.276 3.326-.276 5.002 0 11.96 4.657 23.203 13.113 31.659 8.457 8.456 19.7 13.113 31.661 13.113 1.677 0 3.348-.092 5.004-.276 5.169 6.459 11.998 11.328 19.67 14.128-3.681 15.002-9.23 29.414-16.568 43.032-10.387-8.787-18.043-20.687-21.575-34.303zm121.991-85.666c-4.053 2.261-6.018 7.012-4.746 11.475.629 2.204.947 4.505.947 6.839 0 6.617-2.577 12.838-7.255 17.516-4.68 4.679-10.902 7.256-17.521 7.256-2.332 0-4.634-.319-6.842-.948-4.463-1.271-9.213.695-11.473 4.746-4.39 7.87-12.689 12.758-21.659 12.758s-17.27-4.889-21.659-12.758c-1.8-3.227-5.179-5.129-8.733-5.129-.909 0-1.83.125-2.739.383-2.208.629-4.51.948-6.843.948-6.618 0-12.84-2.577-17.519-7.256-4.679-4.678-7.256-10.899-7.256-17.517 0-2.334.318-4.635.947-6.839 1.271-4.463-.693-9.214-4.746-11.475-7.87-4.39-12.76-12.688-12.76-21.657 0-8.975 4.895-17.276 12.773-21.664 4.054-2.258 6.022-7.009 4.752-11.473-2.468-8.674-.058-18.004 6.289-24.351 4.679-4.679 10.9-7.255 17.519-7.255 2.333 0 4.635.319 6.843.948 4.463 1.271 9.212-.695 11.473-4.746 4.39-7.87 12.689-12.758 21.659-12.758s17.27 4.889 21.659 12.758c2.26 4.052 7.01 6.018 11.474 4.746 2.206-.628 4.508-.947 6.841-.947 6.618 0 12.841 2.577 17.52 7.256 6.347 6.346 8.757 15.677 6.289 24.351-1.271 4.463.698 9.214 4.752 11.473 7.879 4.388 12.772 12.689 12.772 21.664.001 8.968-4.888 17.266-12.758 21.656z"/></g></svg>