<svg id="Capa_1" enable-background="new 0 0 512 512" height="512" viewBox="0 0 512 512" width="512" xmlns="http://www.w3.org/2000/svg"><g><path d="m400.341 169.949h-346.08c-5.523 0-10 4.477-10 10v40.679c0 5.523 4.477 10 10 10h7.398v228.144c0 29.35 23.878 53.229 53.229 53.229h224.827c29.35 0 53.229-23.878 53.229-53.229v-228.144h7.398c5.523 0 10-4.477 10-10v-40.679c-.001-5.523-4.478-10-10.001-10zm-336.08 20h326.08v20.679h-326.08zm308.682 239.624h-291.284v-142.79h291.284zm-33.229 62.427h-224.826c-18.322 0-33.229-14.906-33.229-33.229v-9.199h291.284v9.199c0 18.323-14.906 33.229-33.229 33.229zm33.229-225.217h-291.284v-36.155h291.284z"/><path d="m417.481 43.001h-132.784c-4.689-24.46-26.246-43.001-52.053-43.001h-23.736c-25.806 0-47.363 18.541-52.052 43.001h-5.894c-5.523 0-10 4.477-10 10v60.796c0 18.358 14.935 33.294 33.292 33.294h97.121c18.358 0 33.293-14.936 33.293-33.294v-10.534h153.071c5.523 0 10-4.477 10-10 0-27.715-22.546-50.262-50.258-50.262zm-240.023-.002c4.245-13.323 16.739-22.999 31.45-22.999h23.736c14.711 0 27.205 9.677 31.45 23.001zm56.313 40.264c-5.523 0-10 4.477-10 10s4.477 10 10 10h50.897v10.534c0 7.331-5.963 13.294-13.293 13.294h-97.121c-7.33 0-13.292-5.964-13.292-13.294v-50.796h256.52c13.182 0 24.422 8.474 28.561 20.262z"/><path d="m166.366 407.289h113.844c2.774 0 5.425-1.153 7.316-3.183 9.124-9.792 14.148-22.558 14.148-35.948 0-29.08-23.657-52.739-52.735-52.739-22.177 0-41.381 13.683-49.111 33.451-3.288-.949-6.713-1.441-10.169-1.441-20.254 0-36.731 16.479-36.731 36.734 0 6.321 1.636 12.56 4.73 18.042 1.773 3.141 5.101 5.084 8.708 5.084zm23.293-39.859c3.876 0 7.513 1.286 10.518 3.719 2.84 2.3 6.709 2.868 10.091 1.479 3.381-1.389 5.736-4.511 6.14-8.144 1.845-16.569 15.83-29.063 32.531-29.063 18.05 0 32.735 14.687 32.735 32.739 0 6.928-2.166 13.586-6.166 19.13h-102.287c-.194-1.026-.293-2.073-.293-3.125 0-9.228 7.506-16.735 16.731-16.735z"/></g></svg>