<svg id="Capa_1" enable-background="new 0 0 512 512" height="512" viewBox="0 0 512 512" width="512" xmlns="http://www.w3.org/2000/svg"><g><path d="m502 123.816h-134.743c13.312-12.898 21.598-30.955 21.598-50.91v-31.643c0-5.523-4.478-10-10-10h-61.945c-25.853 0-48.519 13.908-60.91 34.635-12.391-20.727-35.057-34.635-60.911-34.635h-61.945c-5.523 0-10 4.477-10 10v31.644c0 19.956 8.286 38.012 21.598 50.91h-134.742c-5.523 0-10 4.477-10 10v64.647c0 5.523 4.477 10 10 10h11.657v215.584c0 31.259 25.431 56.689 56.689 56.689h355.309c31.258 0 56.688-25.431 56.688-56.689v-215.585h11.657c5.522 0 10-4.477 10-10v-64.647c0-5.523-4.478-10-10-10zm-183.234 20v44.647h-125.532v-44.647zm-62.636 272.854c-4.445-1.121-20.082-10.317-45.324-31.373-21.799-18.185-40.897-37.156-47.521-47.21-8.543-12.965-11.887-24.144-11.181-37.378 1.413-26.357 23.281-47.8 48.749-47.8 19.311 0 33.708 16.396 41.443 25.205 4.888 5.567 8.118 9.245 13.707 9.245 5.693 0 9.074-3.688 14.675-9.799 8.451-9.22 22.596-24.651 40.475-24.651 25.466 0 47.332 21.443 48.745 47.798.705 13.212-2.64 24.393-11.187 37.388-6.707 10.199-25.768 29.231-47.431 47.359-25.113 21.014-40.706 30.137-45.15 31.216zm24.721-174.62c-10.764 6.653-18.99 15.532-24.599 21.649-5.421-6.149-13.816-15.316-25.103-22.049v-33.187h49.702zm36.059-190.787h51.945v21.644c0 28.072-22.838 50.91-50.91 50.91h-30.619l19.241-14.049c4.46-3.257 5.436-9.513 2.179-13.973s-9.513-5.436-13.973-2.179l-28.773 21.008v-12.451c0-28.072 22.838-50.91 50.91-50.91zm-173.765 21.643v-21.643h51.945c28.072 0 50.911 22.838 50.911 50.911v12.451l-28.773-21.009c-4.46-3.257-10.716-2.281-13.973 2.179s-2.281 10.716 2.179 13.973l19.241 14.049h-30.618c-28.074-.001-50.912-22.839-50.912-50.911zm-123.145 70.91h153.234v44.647h-153.234zm21.657 280.232v-215.585h169.492v25.415c-3.282-.623-6.714-.969-10.296-.969-17.733 0-34.614 7.014-47.535 19.749-12.709 12.526-20.233 29.211-21.186 46.983-1.218 22.818 7.665 39.151 14.452 49.451 9.649 14.644 33.729 36.94 53.046 52.922 4.025 3.33 7.865 6.422 11.519 9.277v49.446h-132.803c-20.231 0-36.689-16.459-36.689-36.689zm189.492 36.689v-34.974c11.204 7.291 19.554 10.966 24.957 10.966 5.431 0 13.709-3.599 24.745-10.742v34.75zm239.194-36.689c0 20.23-16.458 36.689-36.688 36.689h-132.804v-49.197c3.714-2.904 7.62-6.056 11.716-9.457 18.29-15.186 43.107-38.177 52.854-52.999 7.357-11.188 15.649-26.919 14.446-49.445-.952-17.77-8.476-34.455-21.184-46.981-12.921-12.735-29.802-19.749-47.532-19.749-3.58 0-7.014.365-10.301 1.023v-25.469h169.492v215.585zm21.657-235.585h-153.234v-44.647h153.234z"/></g></svg>