<svg id="Capa_1" enable-background="new 0 0 512 512" height="512" viewBox="0 0 512 512" width="512" xmlns="http://www.w3.org/2000/svg"><g><path d="m345.796 147.691c-11.434-11.27-26.376-17.476-42.074-17.476-22.562 0-38.45 16.175-47.485 25.978-8.618-9.669-24.66-25.978-47.955-25.978-15.7 0-30.643 6.207-42.077 17.476-11.236 11.075-17.889 25.828-18.73 41.542-1.075 20.141 6.747 34.531 12.725 43.602 8.432 12.795 29.377 32.198 46.167 46.09 36.68 30.347 46.5 30.347 49.727 30.347 3.272 0 13.231 0 49.715-30.29 16.66-13.832 37.493-33.22 45.999-46.154 6.48-9.853 13.782-23.712 12.721-43.597-.844-15.712-7.497-30.465-18.733-41.54zm-10.7 74.147c-5.688 8.648-21.93 24.876-40.416 40.38-21.003 17.615-34.373 25.647-38.562 26.944-4.192-1.331-17.603-9.422-38.719-27.075-18.606-15.554-34.882-31.732-40.499-40.257-7.222-10.959-10.05-20.389-9.455-31.529 1.186-22.104 19.505-40.086 40.837-40.086 16.1 0 27.836 13.365 34.848 21.351 4.312 4.911 7.427 8.458 12.873 8.458 5.519 0 8.77-3.546 13.69-8.915 7.163-7.814 19.151-20.894 34.029-20.894 21.331 0 39.648 17.982 40.834 40.084.593 11.123-2.236 20.555-9.46 31.539z"/><path d="m386.699 68.447h-44.104v-7.277c0-5.523-4.478-10-10-10h-18.88c-3.449-28.782-28.018-51.17-57.715-51.17s-54.266 22.388-57.716 51.17h-18.88c-5.522 0-10 4.477-10 10v7.276h-44.104c-19.625 0-35.592 15.967-35.592 35.592v372.369c0 19.625 15.967 35.592 35.592 35.592h261.398c19.625 0 35.592-15.967 35.592-35.592v-372.368c.001-19.625-15.966-35.592-35.591-35.592zm-197.295 2.723h18.561c2.76 0 5.397-1.141 7.287-3.152s2.865-4.714 2.693-7.469c-.05-.805-.075-1.62-.075-2.42 0-21.024 17.105-38.129 38.13-38.129s38.13 17.105 38.13 38.129c0 .801-.025 1.615-.075 2.42-.172 2.755.804 5.458 2.693 7.469s4.527 3.152 7.287 3.152h18.561v20.276h-133.192zm212.887 405.238c0 8.598-6.994 15.592-15.592 15.592h-261.398c-8.598 0-15.592-6.995-15.592-15.592v-372.369c0-8.598 6.994-15.592 15.592-15.592h44.104v13c0 5.523 4.478 10 10 10h153.191c5.522 0 10-4.477 10-10v-13h44.104c8.598 0 15.592 6.995 15.592 15.592v372.369z"/><path d="m315.133 445.5h-118.266c-5.522 0-10 4.477-10 10s4.478 10 10 10h118.266c5.522 0 10-4.477 10-10s-4.478-10-10-10z"/><path d="m344.159 324.819h-176.318c-5.522 0-10 4.477-10 10s4.478 10 10 10h176.318c5.522 0 10-4.477 10-10s-4.477-10-10-10z"/><path d="m344.159 365.585h-176.318c-5.522 0-10 4.477-10 10v39.149c0 5.523 4.478 10 10 10h176.318c5.522 0 10-4.477 10-10v-39.149c0-5.523-4.477-10-10-10zm-10 39.149h-156.318v-19.149h156.318z"/><path d="m265.229 51.9c-1.533-3.741-5.307-6.207-9.343-6.172-4.195.037-8.007 2.818-9.357 6.781-1.346 3.95-.018 8.455 3.255 11.045 3.275 2.591 7.94 2.867 11.492.662 4.099-2.545 5.809-7.863 3.953-12.316z"/></g></svg>