<svg id="Capa_1" enable-background="new 0 0 512.089 512.089" height="512" viewBox="0 0 512.089 512.089" width="512" xmlns="http://www.w3.org/2000/svg"><g><path d="m475.37 124.126c-35.236-58.584-91.178-99.94-157.519-116.449-66.341-16.508-135.141-6.196-193.725 29.042-58.584 35.236-99.94 91.177-116.449 157.519-16.509 66.341-6.195 135.141 29.042 193.725 35.236 58.584 91.178 99.94 157.519 116.449 20.647 5.138 41.522 7.678 62.264 7.677 45.903-.001 91.11-12.448 131.461-36.719 20.668-12.431 39.191-27.439 55.236-44.571l-1.102 4.428c-2.496 10.031-.937 20.434 4.391 29.292s13.786 15.111 23.817 17.607c.811.202 1.623.298 2.423.298 4.484 0 8.564-3.039 9.696-7.587 1.333-5.359-1.93-10.785-7.289-12.119-4.847-1.206-8.934-4.228-11.508-8.507-2.574-4.28-3.328-9.307-2.122-14.154l1.586-6.375c2.098-8.43 1.244-16.916-1.903-24.362 20.123-26.928 34.861-57.864 43.223-91.469 16.51-66.341 6.196-135.141-29.041-193.725zm9.633 188.895c-7.267 29.203-19.757 56.22-36.705 80.017-3.915-2.854-8.432-5.015-13.415-6.255-4.847-1.206-8.934-4.227-11.508-8.507l-.147-.245c15.361-20.997 26.985-45.245 33.645-72.009 27.557-110.739-40.115-223.249-150.852-250.806-110.74-27.556-223.247 40.115-250.805 150.852-27.557 110.737 40.115 223.248 150.852 250.805 16.715 4.159 33.466 6.149 49.963 6.149 59.364 0 115.391-25.772 154.182-68.957 5.169 5.958 12.027 10.182 19.84 12.126 2.154.536 4.158 1.431 5.945 2.635-16.402 19.284-36.016 35.976-58.344 49.406-54.006 32.483-117.43 41.99-178.586 26.771-61.157-15.219-112.728-53.343-145.211-107.349s-41.991-117.429-26.771-178.586c15.218-61.158 53.342-112.728 107.349-145.211s117.432-41.989 178.586-26.771c61.157 15.219 112.728 53.343 145.211 107.349 32.483 54.005 41.991 117.429 26.771 178.586zm-80.79 52.773c-.004.002-.007.004-.011.006-.003.002-.007.004-.01.006-9.425 5.659-22.708.924-29.615-10.561-3.478-5.782-4.796-12.319-3.713-18.408.993-5.583 3.932-10.097 8.274-12.708 2.704-1.626 5.725-2.396 8.824-2.396 7.701 0 15.874 4.759 20.801 12.951 6.907 11.484 4.865 25.437-4.55 31.11zm24.059-36.982c-.706-1.5-1.495-2.981-2.37-4.436-12.595-20.939-38.197-28.739-57.072-17.385-9.366 5.633-15.637 14.99-17.657 26.345-1.93 10.85.295 22.292 6.266 32.219 7.345 12.212 19.113 19.953 31.391 22.034-44.898 45.17-111.765 66.342-177.932 49.877-100.036-24.895-161.168-126.533-136.274-226.568 21.138-84.942 97.594-141.829 181.433-141.829 14.897 0 30.041 1.799 45.134 5.555 100.036 24.894 161.168 126.532 136.274 226.567-2.384 9.577-5.471 18.798-9.193 27.621z"/><path d="m258.176 158.697c-62.239-15.489-125.472 22.545-140.959 84.783-7.502 30.149-2.815 61.415 13.198 88.039 16.014 26.624 41.437 45.418 71.585 52.92 9.394 2.337 18.809 3.456 28.08 3.456 52.156 0 99.729-35.396 112.879-88.238 15.487-62.238-22.546-125.472-84.783-140.96zm65.375 136.129c-10.89 43.76-50.278 73.069-93.47 73.066-7.674-.001-15.476-.927-23.251-2.862-24.965-6.212-46.016-21.775-59.276-43.821s-17.141-47.936-10.929-72.9c12.825-51.536 65.188-83.029 116.721-70.205 51.535 12.825 83.029 65.187 70.205 116.722z"/></g></svg>