<svg id="Capa_1" enable-background="new 0 0 512 512" height="512" viewBox="0 0 512 512" width="512" xmlns="http://www.w3.org/2000/svg"><g><path d="m282.393 190.362c-11.739 0-20.565 6.836-26.229 12.422-5.596-5.577-14.532-12.422-26.554-12.422-20.255 0-36.987 16.272-38.095 37.048-.662 12.501 4.108 21.349 7.754 26.916 4.932 7.531 16.875 18.695 26.408 26.632 21.531 17.927 27.729 17.927 30.374 17.927 2.678 0 8.948 0 30.374-17.9 9.46-7.904 21.34-19.06 26.312-26.667 3.643-5.575 8.41-14.429 7.748-26.911-1.107-20.773-17.839-37.045-38.092-37.045zm13.601 53.015c-5.979 9.15-31.325 30.666-39.921 35.046-8.668-4.432-34.122-25.965-40.072-35.054-3.485-5.321-4.793-9.638-4.515-14.897.532-9.986 8.662-18.11 18.123-18.11 6.861 0 12.516 6.479 15.894 10.351 2.676 3.067 5.444 6.239 10.498 6.239 5.037 0 7.879-3.12 10.887-6.423 3.464-3.803 9.262-10.167 15.505-10.167 9.46 0 17.589 8.124 18.12 18.107.278 5.252-1.031 9.571-4.519 14.908z"/><path d="m502 127.947h-3.402v-53.687c0-5.523-4.478-10-10-10h-465.196c-5.522 0-10 4.477-10 10v53.687h-3.402c-5.522 0-10 4.477-10 10v71.411c0 5.523 4.478 10 10 10h3.402v85.212c0 78.944 64.226 143.169 143.17 143.169h198.855c78.944 0 143.17-64.226 143.17-143.169v-85.212h3.403c5.522 0 10-4.477 10-10v-71.411c0-5.523-4.478-10-10-10zm-10 20v51.411h-99.135v-51.411zm-472 51.411v-51.411h99.135v51.411zm13.402 105.212v-37.44c39.445-4.499 84.795 14.064 120.115 49.608 32.36 32.564 50.636 73.476 49.954 111.002h-46.899c-67.916 0-123.17-55.254-123.17-123.17zm322.026 123.17h-46.899c-.683-37.526 17.593-78.438 49.953-111.002 35.322-35.544 80.674-54.105 120.116-49.608v37.44c0 67.916-55.254 123.17-123.17 123.17zm123.17-180.711c-44.899-4.214-95.387 16.452-134.303 55.612-36.021 36.249-56.396 82.315-55.766 125.1h-65.058c.629-42.785-19.745-88.851-55.766-125.1-38.915-39.16-89.401-59.828-134.303-55.612v-27.67h95.732c5.522 0 10-4.477 10-10v-71.411c0-5.523-4.478-10-10-10h-95.732v-43.688h445.195v43.687h-95.732c-5.522 0-10 4.477-10 10v71.411c0 5.523 4.478 10 10 10h95.732v27.671z"/><path d="m320.288 127.947h-128.576c-5.522 0-10 4.477-10 10s4.478 10 10 10h128.576c5.522 0 10-4.477 10-10s-4.477-10-10-10z"/></g></svg>