<svg id="Capa_1" enable-background="new 0 0 512.001 512.001" height="512" viewBox="0 0 512.001 512.001" width="512" xmlns="http://www.w3.org/2000/svg"><g><path d="m346.188 124.446c1.73-14.357-3.159-28.899-13.545-39.285-8.967-8.966-20.888-13.904-33.568-13.904-1.922 0-3.836.114-5.73.342-8.929-11.366-22.665-18.185-37.345-18.185s-28.415 6.819-37.344 18.185c-1.895-.228-3.809-.342-5.73-.342-12.682 0-24.604 4.938-33.567 13.904-10.387 10.386-15.276 24.928-13.546 39.285-11.376 8.928-18.201 22.668-18.201 37.356 0 14.681 6.819 28.416 18.185 37.344-.228 1.896-.342 3.809-.342 5.73 0 12.681 4.938 24.603 13.903 33.567 8.965 8.967 20.887 13.905 33.568 13.905 1.923 0 3.836-.114 5.731-.342 8.928 11.365 22.663 18.184 37.343 18.184s28.415-6.818 37.343-18.184c1.896.228 3.809.342 5.731.342 12.681 0 24.602-4.938 33.568-13.904s13.903-20.888 13.903-33.568c0-1.922-.114-3.835-.342-5.73 11.365-8.928 18.185-22.663 18.185-37.344.001-14.688-6.824-28.428-18.2-37.356zm-15.945 61.373c-4.052 2.261-6.018 7.011-4.746 11.473.696 2.446 1.05 4.998 1.05 7.585 0 7.339-2.857 14.237-8.046 19.426-5.188 5.189-12.088 8.047-19.426 8.047-2.587 0-5.138-.354-7.582-1.051-4.467-1.27-9.215.693-11.476 4.745-4.867 8.727-14.07 14.147-24.017 14.147s-19.149-5.421-24.017-14.147c-1.8-3.226-5.179-5.129-8.733-5.129-.91 0-1.832.125-2.742.384-2.444.697-4.995 1.051-7.582 1.051-7.339 0-14.237-2.857-19.426-8.047-5.188-5.188-8.046-12.087-8.046-19.426 0-2.587.354-5.139 1.05-7.585 1.271-4.462-.694-9.212-4.746-11.473-8.726-4.867-14.146-14.07-14.146-24.017 0-9.953 5.427-19.159 14.162-24.024 4.054-2.259 6.021-7.009 4.752-11.473-2.735-9.618-.063-19.965 6.975-27.003 5.188-5.188 12.087-8.046 19.426-8.046 2.587 0 5.139.354 7.585 1.05 4.464 1.275 9.213-.694 11.472-4.745 4.869-8.727 14.071-14.147 24.018-14.147s19.148 5.421 24.018 14.147c2.26 4.051 7.007 6.016 11.472 4.745 2.446-.696 4.998-1.05 7.585-1.05 7.338 0 14.237 2.857 19.427 8.047 7.037 7.037 9.709 17.384 6.974 27.002-1.27 4.464.698 9.214 4.752 11.473 8.735 4.865 14.162 14.071 14.162 24.024-.003 9.947-5.424 19.15-14.149 24.017z"/><path d="m288.372 141.688c-2.543-1.417-4.89-3.192-6.975-5.277-2.078-2.079-3.847-4.423-5.257-6.965-2.257-4.07-7.023-6.05-11.501-4.763-5.586 1.6-11.691 1.6-17.277 0-4.474-1.285-9.243.691-11.501 4.763-1.41 2.542-3.179 4.886-5.256 6.963-2.086 2.087-4.433 3.862-6.976 5.279-4.059 2.261-6.025 7.02-4.747 11.486.799 2.792 1.204 5.695 1.204 8.63 0 2.934-.405 5.837-1.204 8.629-1.278 4.467.688 9.226 4.747 11.486 2.541 1.416 4.888 3.192 6.976 5.28 2.087 2.086 3.862 4.433 5.279 6.976 2.261 4.059 7.021 6.023 11.486 4.747 5.584-1.598 11.676-1.598 17.26 0 .913.261 1.838.387 2.751.387 3.557 0 6.937-1.905 8.735-5.134 1.417-2.543 3.192-4.89 5.279-6.976 2.088-2.088 4.435-3.864 6.976-5.28 4.059-2.261 6.025-7.02 4.747-11.486-.799-2.792-1.204-5.695-1.204-8.629 0-2.935.405-5.838 1.204-8.63 1.279-4.467-.688-9.226-4.746-11.486zm-16.012 26.888c-1.792 1.376-3.498 2.872-5.106 4.48-1.607 1.608-3.104 3.314-4.48 5.106-2.238-.296-4.501-.445-6.772-.445s-4.534.149-6.772.445c-1.376-1.792-2.873-3.498-4.48-5.106-1.608-1.608-3.314-3.104-5.106-4.48.296-2.239.445-4.501.445-6.772s-.149-4.534-.445-6.772c1.793-1.377 3.499-2.873 5.107-4.481 1.606-1.607 3.102-3.313 4.475-5.106 4.48.592 9.074.592 13.555 0 1.374 1.793 2.868 3.499 4.476 5.107 1.608 1.607 3.314 3.104 5.106 4.48-.296 2.238-.445 4.501-.445 6.772s.146 4.533.442 6.772z"/><path d="m417.472 161.803c0-89.219-72.435-161.803-161.472-161.803s-161.471 72.584-161.471 161.803c0 65.497 39.037 122.029 95.021 147.461v45.119c0 5.522 4.478 10 10 10h20.574v23.289c0 11.151-3.556 21.852-10.012 30.128-8.455 10.838-12.815 24.407-12.277 38.206 1.165 29.975 25.503 54.542 55.407 55.93.936.043 1.867.065 2.796.065 15.027 0 29.181-5.657 40.113-16.095 11.646-11.117 18.06-26.112 18.06-42.223 0-12.905-4.124-25.136-11.925-35.367-6.811-8.935-10.41-19.24-10.41-29.804v-24.13h20.574c5.522 0 10-4.478 10-10v-45.119c55.985-25.431 95.022-81.964 95.022-147.46zm-131.091 268.639c5.122 6.718 7.83 14.755 7.83 23.241 0 10.592-4.215 20.449-11.869 27.756-7.617 7.271-17.628 11.007-28.172 10.518-19.618-.91-35.585-17.044-36.351-36.729-.354-9.085 2.51-18.009 8.062-25.127 9.185-11.773 14.242-26.842 14.242-42.429v-23.289h31.752v24.13c.001 14.981 5.017 29.48 14.506 41.929zm16.07-86.059h-92.9v-27.599c14.716 4.437 30.31 6.823 46.45 6.823s31.734-2.386 46.45-6.823zm-46.451-40.777c-78.008 0-141.472-63.613-141.472-141.804s63.465-141.802 141.472-141.802 141.472 63.612 141.472 141.803-63.464 141.803-141.472 141.803z"/><path d="m256 435.809c-5.522 0-10 4.478-10 10v13.021c0 5.522 4.478 10 10 10s10-4.478 10-10v-13.021c0-5.523-4.477-10-10-10z"/></g></svg>