<svg id="Capa_1" enable-background="new 0 0 512 512" height="512" viewBox="0 0 512 512" width="512" xmlns="http://www.w3.org/2000/svg"><g><path d="m176.362 285.743h210.051c5.523 0 10-4.478 10-10v-210.675c0-5.522-4.477-10-10-10h-210.051c-5.523 0-10 4.478-10 10v210.675c0 5.523 4.477 10 10 10zm10-210.675h190.051v190.675h-190.051z"/><path d="m343.552 134.021c-1.683-4.575-6.424-7.268-11.216-6.378l-11.374 2.119c-8.698 1.621-16.009 7.089-20.133 14.556-1.624-.336-3.299-.642-5.023-.914-5.283-.837-10.042-.722-13.879-.275-6.208-11.271-17.533-18.965-30.808-20.385-20.229-2.163-39.3 11.758-43.402 31.694-2.229 10.836.003 21.801 6.286 30.874 6.284 9.077 15.749 15.026 26.649 16.75 7.167 1.135 14.456.293 21.108-2.365 6.048 4.512 11.015 7.447 23.645 9.445 5.182.819 9.837 1.189 14.03 1.188 29.363-.002 35.752-18.141 37.12-26.787.087-.55.161-1.097.222-1.642l12.899-7.829c4.089-2.482 5.848-7.513 4.196-12.002zm-21.84 33.627c-3.269 1.984-5.12 5.658-4.77 9.465.093 1.009.045 2.119-.142 3.303-.513 3.243-2.075 13.116-28.27 8.972-9.191-1.454-11.02-2.841-15.905-6.546-1.163-.882-2.48-1.881-4.018-2.979-1.734-1.238-3.77-1.861-5.811-1.861-1.835 0-3.673.504-5.297 1.519-4.084 2.551-8.959 3.541-13.722 2.787-5.453-.862-10.187-3.839-13.331-8.38-3.142-4.538-4.257-10.029-3.14-15.461 2.049-9.962 11.578-16.923 21.685-15.837 8.28.886 15.044 6.635 17.233 14.647.744 2.724 2.605 5.006 5.123 6.283 2.519 1.277 5.459 1.431 8.096.421.054-.021 5.735-2.012 13.235-.824 4.307.682 8.146 1.586 11.411 2.688 2.79.942 5.855.607 8.376-.917 2.521-1.525 4.241-4.083 4.701-6.993l.161-1.013c.598-3.784 3.531-6.798 7.297-7.499l3.073-.572 4.561 12.396z"/><path d="m429.414 0h-321.795c-19.317 0-35.033 15.716-35.033 35.032v441.936c0 19.316 15.715 35.032 35.032 35.032h321.795c5.523 0 10-4.478 10-10v-492c.001-5.522-4.476-10-9.999-10zm-321.795 20h311.795v421.937h-311.795c-5.377 0-10.475 1.218-15.032 3.392v-410.297c-.001-8.289 6.743-15.032 15.032-15.032zm311.795 472h-311.795c-.194 0-.388-.004-.58-.011-6.866-.262-12.567-5.151-14.066-11.63-.014-.061-.028-.121-.041-.182-.027-.122-.052-.244-.075-.367-.094-.491-.165-.99-.21-1.497-.011-.127-.021-.254-.029-.381-.02-.319-.031-.64-.031-.964 0-8.288 6.744-15.031 15.032-15.031h311.795z"/><path d="m133.362 406.787c5.523 0 10-4.478 10-10v-332.426c0-5.522-4.477-10-10-10s-10 4.478-10 10v332.426c0 5.523 4.477 10 10 10z"/><path d="m343.43 315.082h-124.085c-5.523 0-10 4.478-10 10v42.128c0 5.522 4.477 10 10 10h124.085c5.523 0 10-4.478 10-10v-42.128c0-5.522-4.477-10-10-10zm-10 42.128h-104.085v-22.128h104.085z"/></g></svg>