<svg id="Capa_1" enable-background="new 0 0 512 512" height="512" viewBox="0 0 512 512" width="512" xmlns="http://www.w3.org/2000/svg"><g><path d="m256 0c-77.766 0-141.034 63.268-141.034 141.034v229.932c0 77.766 63.268 141.034 141.034 141.034s141.034-63.268 141.034-141.034v-229.932c0-77.766-63.268-141.034-141.034-141.034zm63.512 396.577c.625 2.193.942 4.482.942 6.803 0 6.582-2.562 12.77-7.215 17.422-4.654 4.653-10.842 7.217-17.422 7.217-2.319 0-4.608-.317-6.804-.942-4.462-1.271-9.213.693-11.473 4.745-4.366 7.827-12.62 12.689-21.54 12.689s-17.173-4.862-21.54-12.689c-1.8-3.226-5.178-5.129-8.732-5.129-.91 0-1.832.125-2.74.384-2.195.625-4.484.942-6.804.942-6.581 0-12.769-2.562-17.422-7.217-4.653-4.652-7.216-10.84-7.216-17.422 0-2.32.317-4.609.942-6.803 1.271-4.463-.693-9.213-4.746-11.474-7.827-4.366-12.689-12.619-12.689-21.539 0-8.927 4.867-17.183 12.703-21.547 4.054-2.259 6.022-7.009 4.752-11.473-2.454-8.627-.058-17.906 6.254-24.219 4.652-4.653 10.839-7.216 17.421-7.216 2.322 0 4.61.316 6.801.941 4.463 1.272 9.215-.691 11.476-4.745 4.366-7.826 12.619-12.688 21.539-12.688s17.173 4.862 21.539 12.688c2.261 4.054 7.013 6.019 11.476 4.745 2.191-.625 4.479-.941 6.801-.941 6.582 0 12.769 2.562 17.422 7.217 6.312 6.312 8.708 15.591 6.254 24.218-1.27 4.464.698 9.214 4.752 11.473 7.835 4.364 12.703 12.62 12.703 21.547 0 8.92-4.862 17.173-12.689 21.539-4.052 2.261-6.017 7.011-4.745 11.474zm20.641-77.851c-1.121-9.887-5.522-19.291-12.772-26.542-2.929-2.929-6.193-5.4-9.706-7.379l59.359-59.36v56.399zm-205.187-177.692c0-66.738 54.296-121.034 121.034-121.034s121.034 54.296 121.034 121.034v56.126l-81.955 81.956c-1.417.023-2.828.112-4.23.267-8.399-10.487-21.189-16.766-34.849-16.766s-26.45 6.278-34.849 16.766c-1.644-.182-3.302-.273-4.967-.273-11.925 0-23.134 4.644-31.564 13.074-9.665 9.665-14.267 23.156-12.785 36.518-10.496 8.399-16.781 21.194-16.781 34.862 0 13.659 6.279 26.449 16.766 34.85-.155 1.4-.244 2.812-.267 4.228l-23.343 23.344c-8.465-16.516-13.243-35.22-13.243-55.02v-229.932zm24.12 302.36 18.155-18.156c1.979 3.513 4.45 6.777 7.378 9.706 7.231 7.23 16.505 11.675 26.521 12.794l-23.24 23.24c-11.053-7.551-20.797-16.885-28.814-27.584zm96.914 48.606c-17.825 0-34.761-3.874-50.014-10.822l24.618-24.618c7.346 5.088 16.173 7.951 25.396 7.951 13.659 0 26.449-6.279 34.849-16.766 1.645.182 3.302.273 4.967.273 11.923 0 23.132-4.644 31.564-13.074 8.43-8.431 13.073-19.641 13.073-31.564 0-1.664-.091-3.322-.273-4.966 10.486-8.4 16.766-21.19 16.766-34.85 0-9.224-2.863-18.05-7.95-25.396l28.038-28.038v60.836c0 66.738-54.296 121.034-121.034 121.034z"/><path d="m256 240.871c53.131 0 96.356-43.396 96.356-96.735v-2.479c0-53.34-43.225-96.735-96.356-96.735s-96.356 43.396-96.356 96.735v2.479c0 53.34 43.225 96.735 96.356 96.735zm-76.356-99.214c0-42.312 34.253-76.735 76.356-76.735s76.356 34.423 76.356 76.735v2.479c0 42.312-34.253 76.735-76.356 76.735s-76.356-34.423-76.356-76.735z"/><path d="m235.362 144.896c5.523 0 10-4.478 10-10v-13.854c0-5.522-4.477-10-10-10s-10 4.478-10 10v13.854c0 5.523 4.477 10 10 10z"/><path d="m276.638 144.896c5.523 0 10-4.478 10-10v-13.854c0-5.522-4.477-10-10-10s-10 4.478-10 10v13.854c0 5.523 4.477 10 10 10z"/><path d="m256 188.865c12.106 0 24.213-4.608 33.429-13.824 3.905-3.905 3.906-10.237 0-14.143-3.906-3.903-10.237-3.904-14.142 0-10.636 10.635-27.939 10.635-38.575 0-3.905-3.904-10.237-3.904-14.142 0-3.905 3.905-3.905 10.237 0 14.143 9.217 9.216 21.324 13.824 33.43 13.824z"/><path d="m286.289 344.309c-2.285-1.272-4.398-2.872-6.279-4.754-1.871-1.87-3.463-3.979-4.731-6.268-2.257-4.07-7.023-6.046-11.5-4.764-5.035 1.443-10.522 1.443-15.558 0-4.474-1.28-9.242.693-11.5 4.764-1.269 2.288-2.86 4.397-4.731 6.268-1.881 1.882-3.994 3.481-6.279 4.754-4.06 2.261-6.027 7.021-4.749 11.488.719 2.512 1.083 5.126 1.083 7.768s-.365 5.256-1.083 7.768c-1.279 4.468.688 9.228 4.749 11.488 2.285 1.272 4.398 2.872 6.279 4.754 1.881 1.881 3.48 3.993 4.753 6.279 2.261 4.06 7.023 6.023 11.488 4.749 5.025-1.439 10.512-1.439 15.537 0 .913.261 1.838.387 2.752.387 3.557 0 6.938-1.905 8.736-5.136 1.273-2.286 2.872-4.398 4.753-6.279 1.881-1.882 3.994-3.481 6.279-4.754 4.06-2.261 6.027-7.021 4.749-11.488-.719-2.512-1.083-5.126-1.083-7.768s.365-5.256 1.083-7.768c1.279-4.468-.688-9.228-4.748-11.488zm-15.972 25.182c-1.556 1.218-3.042 2.533-4.45 3.94-1.407 1.407-2.722 2.894-3.94 4.45-1.961-.242-3.94-.363-5.927-.363s-3.966.121-5.927.363c-1.218-1.557-2.533-3.043-3.94-4.45s-2.894-2.723-4.45-3.94c.241-1.961.363-3.939.363-5.927s-.122-3.966-.363-5.927c1.556-1.218 3.042-2.533 4.45-3.94 1.405-1.406 2.72-2.893 3.936-4.45 3.926.482 7.937.482 11.862 0 1.216 1.558 2.531 3.044 3.936 4.45 1.407 1.407 2.894 2.723 4.45 3.94-.241 1.961-.363 3.939-.363 5.927s.122 3.966.363 5.927z"/></g></svg>