<svg id="Capa_1" enable-background="new 0 0 512 512" height="512" viewBox="0 0 512 512" width="512" xmlns="http://www.w3.org/2000/svg"><g><path d="m477.39 227.432h-149.133v-141.928c0-20.433-16.624-37.056-37.057-37.056s-37.056 16.624-37.056 37.056v97.28l-16.943-49.009-24.762-71.628c-.001-.004-.003-.009-.005-.013l-3.66-10.588c-1.805-5.22-7.498-7.988-12.719-6.184-5.105 1.765-7.864 7.249-6.296 12.373-46.367 9.796-85.327 30.983-113.198 61.68-27.179 29.933-42.493 67.141-44.611 108.12-17.846 1.362-31.95 16.319-31.95 34.508v.228c0 17.325 12.796 31.718 29.433 34.224l22.075 104.803c3.875 18.56 14.051 35.367 28.654 47.324 14.623 11.974 33.053 18.568 51.892 18.568h247.893c18.839 0 37.269-6.594 51.892-18.568 14.604-11.957 24.779-28.764 28.65-47.306l22.079-104.821c16.637-2.507 29.432-16.899 29.432-34.224v-.228c0-19.084-15.526-34.611-34.61-34.611zm-25.33 116.864h-127.968c2.66-5.108 4.165-10.91 4.165-17.056v-30.358h133.79zm-177.915-258.792c0-9.405 7.651-17.056 17.056-17.056s17.057 7.651 17.057 17.056v151.928l-.001 49.45c0 .026.001.053.001.079v40.278c0 9.405-7.651 17.056-17.057 17.056-9.404 0-17.056-7.651-17.056-17.056zm-224.192 211.378h204.192v30.358c0 6.146 1.505 11.948 4.165 17.056h-198.37zm146.391-220.081 52.074 150.632h-196.429c4.482-75.69 59.865-133.607 144.355-150.632zm-176.344 185.47v-.228c0-8.057 6.555-14.611 14.611-14.611h219.533v29.45h-219.534c-8.056 0-14.61-6.554-14.61-14.611zm359.946 184.919h-247.892c-29.281 0-54.923-21.019-60.972-49.996l-6.929-32.897h383.695l-6.933 32.915c-6.046 28.959-31.687 49.978-60.969 49.978zm112.054-184.919c0 8.057-6.555 14.611-14.611 14.611h-149.132v-29.45h149.133c8.057 0 14.61 6.554 14.61 14.611z"/></g></svg>