<svg id="Capa_1" enable-background="new 0 0 512.006 512.006" height="512" viewBox="0 0 512.006 512.006" width="512" xmlns="http://www.w3.org/2000/svg"><g><path d="m511.772 170.443c-1.898-35.57-16.911-68.973-42.272-94.056-25.705-25.424-59.253-39.425-94.465-39.425-52.49 0-90.321 41.415-110.646 63.665-2.646 2.896-5.69 6.229-8.06 8.614-1.876-2.022-4.152-4.625-6.154-6.912-18.566-21.218-57.199-65.368-113.186-65.368-35.215 0-68.766 14.001-94.472 39.425-25.36 25.084-40.373 58.486-42.274 94.059-1.887 35.471 7.146 66.325 29.288 100.041 17.19 26.178 62.094 75.062 111.736 121.642 24.709 23.185 47.608 42.913 66.223 57.052 30.178 22.923 41.903 25.863 48.747 25.863 6.953 0 18.798-2.932 48.927-25.796 18.567-14.092 41.389-33.788 65.995-56.96 48.447-45.624 94.229-95.713 111.331-121.809 14.903-22.736 31.697-54.653 29.282-100.035zm-46.009 89.073c-16.339 24.932-60.88 73.542-108.315 118.212-64.942 61.157-94.601 77.316-101.21 77.316-.815 0-8.77-.611-36.649-21.79-18.072-13.728-40.422-32.992-64.636-55.71-47.848-44.896-92.549-93.434-108.704-118.036-19.649-29.922-27.679-57.062-26.033-87.998 3.374-63.162 55.759-114.548 116.774-114.548 46.911 0 80.232 38.08 98.135 58.538 9.653 11.032 14.06 16.067 20.888 16.067 7.202 0 12.198-5.469 23.144-17.452 19.526-21.376 52.208-57.154 95.879-57.154 61.013 0 113.394 51.386 116.766 114.545 1.642 30.885-6.388 58.027-26.039 88.01z"/><path d="m347.652 178.202c-15.496-4.044-31.86-1.024-44.892 8.285-13.033 9.309-21.196 23.808-22.397 39.78l-3.506 46.681-7.137 19.737c-4.786 13.238-3.772 27.975 2.781 40.432s18.125 21.641 31.745 25.194c4.225 1.103 8.504 1.647 12.757 1.647 8.808 0 17.494-2.339 25.293-6.911 11.566-6.779 19.8-17.656 23.178-30.605l20.685-78.545c7.496-28.728-9.778-58.199-38.507-65.695zm19.161 60.625-20.685 78.545c-2.036 7.802-6.988 14.345-13.945 18.422-6.956 4.077-15.087 5.202-22.886 3.166h-.002c-8.312-2.169-15.094-7.551-19.094-15.155s-4.594-16.24-1.673-24.319l7.602-21.024c.309-.854.5-1.746.567-2.651l3.608-48.044c.755-10.039 5.887-19.153 14.078-25.004 5.81-4.149 12.67-6.311 19.645-6.311 2.86 0 5.741.364 8.574 1.103 18.059 4.711 28.916 23.235 24.211 41.272z"/><path d="m289.229 166.101c1.451 4.104 5.309 6.669 9.428 6.669 1.106 0 2.231-.186 3.334-.575 5.207-1.841 7.936-7.555 6.094-12.762l-1.929-5.454c-1.841-5.207-7.555-7.933-12.762-6.094-5.207 1.841-7.936 7.555-6.094 12.762z"/><path d="m316.97 156.205c.452 5.208 4.819 9.134 9.95 9.134.29 0 .584-.013.878-.038 5.502-.479 9.574-5.327 9.096-10.829l-.31-3.56c-.478-5.502-5.329-9.573-10.828-9.096-5.502.479-9.574 5.327-9.097 10.829z"/><path d="m351.29 168.228c1.229.497 2.497.732 3.746.732 3.954 0 7.699-2.362 9.273-6.253l1.321-3.267c2.07-5.12-.401-10.949-5.521-13.02-5.119-2.071-10.948.4-13.02 5.521l-1.321 3.267c-2.07 5.121.402 10.95 5.522 13.02z"/><path d="m385.25 162.102c-4.901-2.549-10.938-.644-13.487 4.254l-1.253 2.407c-2.55 4.899-.646 10.937 4.253 13.487 1.476.768 3.054 1.131 4.608 1.131 3.61 0 7.097-1.961 8.879-5.385l1.253-2.407c2.55-4.899.645-10.937-4.253-13.487z"/><path d="m408.778 190.673c-1.637-3.928-5.697-6.445-9.948-6.138-4.144.299-7.754 3.231-8.897 7.224-1.146 4.008.389 8.451 3.794 10.869 3.371 2.395 7.923 2.465 11.372.185 3.942-2.606 5.461-7.793 3.679-12.14z"/><path d="m235.16 272.948-3.506-46.682c-1.201-15.971-9.364-30.47-22.397-39.779-13.032-9.309-29.394-12.328-44.892-8.285-28.729 7.496-46.003 36.967-38.501 65.719l20.673 78.5c3.384 12.972 11.617 23.849 23.184 30.627 7.8 4.572 16.484 6.911 25.293 6.911 4.252 0 8.533-.545 12.757-1.647 13.621-3.554 25.191-12.737 31.745-25.194s7.567-27.194 2.781-40.432zm-13.345 50.857c-4 7.603-10.781 12.985-19.095 15.155 0 0 0 0-.001 0-7.802 2.036-15.93.911-22.886-3.166-6.957-4.078-11.909-10.62-13.951-18.444l-20.673-78.501c-4.711-18.059 6.146-36.583 24.205-41.295 2.833-.739 5.713-1.103 8.573-1.103 6.974 0 13.835 2.162 19.645 6.311 8.191 5.852 13.323 14.965 14.078 25.003l3.608 48.045c.067.905.259 1.797.567 2.651l7.602 21.024c2.922 8.08 2.328 16.717-1.672 24.32z"/><path d="m210.026 172.195c1.103.39 2.228.575 3.334.575 4.119 0 7.977-2.564 9.428-6.669l1.929-5.454c1.842-5.207-.887-10.92-6.094-12.762-5.205-1.84-10.92.887-12.762 6.094l-1.929 5.454c-1.841 5.207.887 10.92 6.094 12.762z"/><path d="m184.22 165.301c.295.025.587.038.878.038 5.131 0 9.498-3.927 9.95-9.134l.311-3.56c.478-5.502-3.595-10.35-9.097-10.829-5.497-.475-10.351 3.593-10.828 9.096l-.31 3.56c-.479 5.503 3.594 10.351 9.096 10.829z"/><path d="m147.708 162.707c1.574 3.892 5.318 6.253 9.273 6.253 1.248 0 2.519-.235 3.746-.732 5.12-2.071 7.592-7.9 5.521-13.02l-1.321-3.267c-2.071-5.121-7.902-7.592-13.02-5.521-5.12 2.071-7.592 7.9-5.521 13.02z"/><path d="m132.646 183.382c1.555 0 3.134-.364 4.608-1.131 4.898-2.55 6.803-8.588 4.253-13.487l-1.253-2.407c-2.55-4.898-8.588-6.804-13.487-4.254-4.898 2.55-6.803 8.588-4.253 13.487l1.253 2.407c1.783 3.424 5.268 5.385 8.879 5.385z"/><path d="m121.709 190.673c-1.658-3.98-5.828-6.514-10.128-6.125-4.141.374-7.685 3.355-8.763 7.368-1.064 3.963.471 8.33 3.828 10.712 3.42 2.426 8.05 2.463 11.507.093 3.843-2.635 5.316-7.754 3.556-12.048z"/></g></svg>