<svg id="Capa_1" enable-background="new 0 0 512 512" height="512" viewBox="0 0 512 512" width="512" xmlns="http://www.w3.org/2000/svg"><g><path d="m425.551 72.046c0-22.002-16.789-40.158-38.228-42.329-3.267-3.787-5.095-8.64-5.095-13.713v-6.004c0-5.523-4.478-10-10-10h-57.479c-5.522 0-10 4.477-10 10v21.466c0 8.537-3.713 16.624-10.188 22.188l-56.904 48.899c-25.91 22.266-31.304 60.072-12.548 87.939.065.098.131.195.198.292l-2.468.127c-.497.026-.991.088-1.478.188l-48.958 9.964c-17.356 3.06-29.462 15.849-29.462 31.148 0 9.858 4.577 18.667 11.718 24.413-25.046 25.34-40.134 60.366-40.134 94.671 0 52.161 35.007 98.531 85.131 112.763 5.854 1.662 9.942 7.174 9.942 13.404 0 19.044 15.494 34.538 34.538 34.538h107.256c29.872 0 54.175-24.303 54.175-54.175v-211.833c12.775-13.681 19.982-31.781 19.982-50.672v-123.274zm-249.587 148.699c.098-.017.196-.036.293-.055l48.362-9.842 19.928-1.03c.104-.003.209-.009.314-.016l83.004-4.288c18.278-.944 32.597-16.021 32.597-34.323v-25.892c0-5.523-4.478-10-10-10s-10 4.477-10 10v25.892c0 7.652-5.986 13.955-13.628 14.35l-77.749 4.017-6.402-8.827c-.335-.462-.661-.929-.979-1.402-13.099-19.461-9.234-45.946 8.99-61.605l56.904-48.9c10.9-9.368 17.152-22.983 17.152-37.356v-11.468h37.673c1.021 10.453 6.018 20.157 14.06 27.079 1.814 1.562 4.129 2.421 6.523 2.421 12.432 0 22.545 10.114 22.545 22.546v123.274c0 15.564-6.696 30.395-18.371 40.688-11.676 10.293-27.234 15.075-42.671 13.125l-112.916-14.271c-6.506-.971-13.066-.782-19.502.562l-38.701 8.077c-5.836-.447-10.448-5.34-10.448-11.289.001-7.278 8.186-10.633 13.022-11.467zm175.43 271.255h-107.256c-8.016 0-14.538-6.521-14.538-14.538 0-15.127-10.066-28.551-24.48-32.643-41.564-11.802-70.594-50.26-70.594-93.524 0-32.693 16.246-66.245 42.54-88.131l39.112-8.162c4.141-.864 8.363-.98 12.548-.347.081.012.163.023.245.034l113.031 14.285c3.104.393 6.21.586 9.303.586 11.964 0 23.72-2.896 34.265-8.379v196.643c-.001 18.845-15.332 34.176-34.176 34.176z"/><path d="m308.576 288.72c-17.781 0-30.891 12.173-38.323 20.044-7.433-8.103-20.326-20.044-38.748-20.044-27.125 0-49.539 21.722-51.027 49.453-.899 16.823 5.615 28.805 10.593 36.354 6.925 10.503 23.996 26.319 37.662 37.618 30.153 24.931 38.31 24.931 41.38 24.931 3.112 0 11.378 0 41.373-24.886 13.561-11.25 30.54-27.055 37.525-37.67 4.975-7.56 11.485-19.552 10.588-36.349-1.487-27.73-23.899-49.451-51.023-49.451zm23.728 74.805c-4.438 6.744-17.224 19.52-31.814 31.791-15.959 13.421-26.522 20.022-30.351 21.544-3.835-1.549-14.433-8.193-30.483-21.644-14.69-12.312-27.505-25.051-31.889-31.699-5.586-8.472-7.775-15.732-7.318-24.275.902-16.83 14.834-30.522 31.055-30.522 12.132 0 21.25 10.377 26.697 16.577 3.671 4.179 6.571 7.479 11.838 7.479 5.302 0 8.466-3.45 12.473-7.818 5.57-6.073 14.894-16.238 26.063-16.238 16.22 0 30.149 13.692 31.053 30.521.456 8.529-1.734 15.792-7.324 24.284z"/><path d="m141.977 176.563c2.612 0 8.046 0 26.367-15.201 7.983-6.623 18.027-16 22.275-22.457 3.174-4.823 7.327-12.489 6.747-23.347-.971-18.113-15.652-32.301-33.423-32.301-9.619 0-16.938 5.083-21.868 9.66-4.9-4.572-12.317-9.66-22.147-9.66-17.771 0-32.453 14.188-33.424 32.302-.582 10.872 3.575 18.535 6.751 23.352 5.305 8.046 18.454 19.202 22.357 22.429 18.41 15.223 23.783 15.223 26.365 15.223zm-35.502-59.934c.395-7.373 6.43-13.372 13.453-13.372 4.988 0 9.393 5.014 12.025 8.009 2.243 2.553 5.034 5.729 9.983 5.729 4.914 0 7.767-3.11 10.284-5.854 2.704-2.949 7.231-7.884 11.724-7.884 7.022 0 13.056 5.999 13.451 13.37.21 3.937-.798 7.206-3.482 11.283-4.744 7.209-24.319 23.815-31.915 28.051-7.66-4.277-27.324-20.898-32.045-28.059-2.681-4.064-3.689-7.331-3.478-11.273z"/></g></svg>