<svg id="Capa_1" enable-background="new 0 0 512 512" height="512" viewBox="0 0 512 512" width="512" xmlns="http://www.w3.org/2000/svg"><g><path d="m256 427.847c74.155 0 134.485-60.33 134.485-134.485s-60.33-134.485-134.485-134.485-134.485 60.33-134.485 134.485 60.33 134.485 134.485 134.485zm0-248.97c63.127 0 114.485 51.358 114.485 114.485s-51.358 114.485-114.485 114.485-114.485-51.358-114.485-114.485 51.358-114.485 114.485-114.485z"/><path d="m211.383 331.774c8.027 1.271 16.2.265 23.61-2.829 6.875 5.171 12.243 8.501 26.474 10.752 5.718.905 10.979 1.358 15.815 1.358 9.165 0 16.799-1.63 23.105-4.908 9.372-4.871 15.237-13.208 16.961-24.111.125-.791.226-1.578.301-2.36l14.942-9.07c4.089-2.482 5.848-7.512 4.196-12.001l-11.549-31.392c-1.683-4.577-6.424-7.269-11.216-6.378l-12.728 2.372c-9.677 1.803-17.762 8.022-22.122 16.469-2.068-.446-4.216-.846-6.438-1.197-6.172-.977-11.683-.773-16.01-.205-6.675-12.661-19.206-21.333-33.94-22.909-22.044-2.362-42.812 12.808-47.28 34.527-2.428 11.804.003 23.749 6.846 33.633 6.845 9.89 17.156 16.371 29.033 18.249zm-16.29-47.852c2.416-11.744 13.648-19.947 25.563-18.669 9.757 1.043 17.729 7.82 20.309 17.264.744 2.724 2.562 5.022 5.08 6.299s5.415 1.447 8.052.438c.067-.024 6.797-2.397 15.512-1.02 4.886.773 9.248 1.802 12.965 3.058 2.791.942 5.854.606 8.376-.917 2.521-1.525 4.241-4.083 4.701-6.993l.18-1.133c.749-4.732 4.416-8.501 9.125-9.378l4.428-.825 5.79 15.739-12.642 7.673c-3.268 1.983-5.119 5.657-4.769 9.464.113 1.227.056 2.57-.168 3.991-.733 4.632-2.716 7.559-6.432 9.49-3.865 2.01-11.613 3.908-26.57 1.542-10.583-1.674-12.852-3.396-18.334-7.554-1.294-.982-2.762-2.094-4.468-3.313-1.734-1.238-3.771-1.861-5.811-1.861-1.835 0-3.673.504-5.297 1.519-4.814 3.007-10.558 4.175-16.174 3.285-6.428-1.017-12.008-4.524-15.714-9.877-3.704-5.351-5.018-11.821-3.702-18.222z"/><path d="m464.89 61.456h-17.404v-5.819c0-5.523-4.477-10-10-10s-10 4.477-10 10v5.819h-52.594v-5.819c0-5.523-4.477-10-10-10s-10 4.477-10 10v5.819h-52.594v-5.819c0-5.523-4.477-10-10-10s-10 4.477-10 10v5.819h-52.594v-5.819c0-5.523-4.477-10-10-10s-10 4.477-10 10v5.819h-52.594v-5.819c0-5.523-4.477-10-10-10s-10 4.477-10 10v5.819h-52.595v-5.819c0-5.523-4.477-10-10-10s-10 4.477-10 10v5.819h-17.405c-25.976 0-47.11 21.133-47.11 47.11v310.687c0 25.977 21.134 47.111 47.11 47.111h417.78c25.977 0 47.11-21.134 47.11-47.111v-310.687c0-25.977-21.134-47.11-47.11-47.11zm-444.89 47.11c0-14.949 12.162-27.11 27.11-27.11h17.404v5.464c0 5.523 4.477 10 10 10s10-4.477 10-10v-5.464h52.594v5.464c0 5.523 4.477 10 10 10s10-4.477 10-10v-5.464h52.594v5.464c0 5.523 4.477 10 10 10s10-4.477 10-10v-5.464h52.594v5.464c0 5.523 4.477 10 10 10s10-4.477 10-10v-5.464h52.594v5.464c0 5.523 4.477 10 10 10s10-4.477 10-10v-5.464h52.594v5.464c0 5.523 4.477 10 10 10s10-4.477 10-10v-5.464h17.404c14.949 0 27.11 12.162 27.11 27.11v11.705h-471.998zm472 310.687c0 14.949-12.162 27.111-27.11 27.111h-417.78c-14.949 0-27.11-12.162-27.11-27.111v-278.982h472z"/></g></svg>