<svg id="Capa_1" enable-background="new 0 0 512 512" height="512" viewBox="0 0 512 512" width="512" xmlns="http://www.w3.org/2000/svg"><g><path d="m124.547 144.786-.023-.119c-1.003-4.938-5.217-8.585-10.247-8.87-5-.293-9.626 2.865-11.18 7.658-.037.115-.073.231-.106.348l-4.955 17.427-5.157-17.523c-.034-.119-.071-.237-.111-.354-1.603-4.78-6.238-7.878-11.26-7.545-5.028.336-9.204 4.028-10.155 8.978-.008.039-.015.077-.021.115l-8.52 47.318c-.979 5.436 2.635 10.635 8.069 11.614 5.433.977 10.636-2.634 11.614-8.07l1.843-10.236 3.214 10.918c.035.121.073.242.113.361 1.522 4.531 5.743 7.564 10.518 7.564h.06c4.798-.025 9.016-3.11 10.495-7.675.037-.115.073-.231.106-.348l3.097-10.892 1.984 10.409c1.034 5.424 6.262 8.988 11.696 7.951 5.425-1.034 8.984-6.271 7.95-11.696z"/><path d="m201.179 170.075c0-18.91-15.358-34.295-34.235-34.295s-34.235 15.385-34.235 34.295c0 18.911 15.358 34.295 34.235 34.295s34.235-15.385 34.235-34.295zm-34.236 14.295c-7.85 0-14.235-6.413-14.235-14.295s6.386-14.295 14.235-14.295 14.235 6.413 14.235 14.295-6.385 14.295-14.235 14.295z"/><path d="m499.649 251.469c0-18.289-8.724-35.362-23.182-46.132 2.629-17.86-3.247-36.119-16.151-49.054-10.833-10.859-25.237-16.84-40.56-16.84-2.823 0-5.631.205-8.401.611-10.749-14.477-27.783-23.211-46.026-23.211-15.462 0-30.055 6.275-40.69 17.002-6.456-34.896-23.505-66.788-48.852-90.945-29.028-27.665-66.618-42.9-105.844-42.9-86.896 0-157.592 74.285-157.592 165.594 0 39.918 13.705 78.475 38.592 108.569 22.245 26.9 52.039 45.48 84.818 53.113l-11.034 37.771c-.883 3.022-.291 6.283 1.598 8.802 1.888 2.52 4.853 4.002 8.001 4.002h25.618v124.149c0 5.523 4.478 10 10 10s10-4.477 10-10v-124.149h25.619c3.148 0 6.113-1.482 8.001-4.002 1.889-2.519 2.48-5.78 1.598-8.802l-11.034-37.773c17.476-4.075 34.23-11.298 49.427-21.295v.051c0 15.345 5.962 29.772 16.787 40.625 10.832 10.86 25.237 16.84 40.562 16.84 2.825 0 5.636-.205 8.409-.612 4.135 5.552 9.258 10.345 15.06 14.096l-7.205 24.7c-.882 3.021-.289 6.282 1.6 8.8s4.853 4 8 4h18.563v87.521c0 5.523 4.478 10 10 10s10-4.477 10-10v-87.521h18.563c3.147 0 6.111-1.482 8-4 1.889-2.519 2.481-5.779 1.6-8.8l-7.205-24.7c5.802-3.751 10.925-8.543 15.06-14.096 2.773.407 5.584.612 8.41.612 15.323 0 29.728-5.98 40.561-16.84 10.826-10.853 16.788-25.281 16.788-40.625 0-2.837-.206-5.66-.614-8.446 14.44-10.771 23.155-27.839 23.155-46.115zm-317.796 70.882 10.371 35.5h-44.56l10.371-35.5c.808-2.765.384-5.745-1.163-8.175s-4.067-4.075-6.914-4.513c-67.047-10.319-117.607-72.255-117.607-144.069 0-80.281 61.723-145.594 137.592-145.594 67.209 0 123.818 50.784 135.431 119.705-13.236 1.26-25.515 7.035-35.034 16.578-1.813 1.817-3.487 3.74-5.018 5.752l-3.288-17.248c-.008-.042-.017-.084-.025-.127-1.008-4.938-5.225-8.582-10.255-8.862-5.009-.287-9.623 2.872-11.173 7.666-.036.113-.07.226-.103.34l-4.957 17.428-5.157-17.523c-.034-.119-.072-.237-.111-.354-1.602-4.781-6.245-7.888-11.264-7.545-5.03.338-9.205 4.034-10.152 8.986-.007.036-.013.071-.02.107l-8.52 47.318c-.979 5.436 2.635 10.635 8.069 11.614 5.434.977 10.636-2.634 11.614-8.07l1.843-10.236 3.214 10.918c.034.118.071.236.11.353 1.52 4.536 5.742 7.572 10.52 7.572h.061c4.802-.025 9.021-3.113 10.497-7.684.036-.112.07-.226.103-.339l3.099-10.894 1.984 10.411c.344 1.805 1.153 3.403 2.279 4.695.1 1.593.267 3.187.501 4.778-14.458 10.771-23.182 27.845-23.182 46.132 0 13.592 4.821 26.516 13.234 36.679-16.429 11.161-35.011 18.545-54.313 21.515-2.847.438-5.367 2.083-6.914 4.513s-1.971 5.408-1.163 8.173zm278.56-38.126c-4.044 2.261-6.005 7.005-4.738 11.461.949 3.341 1.431 6.821 1.431 10.344 0 10.012-3.888 19.423-10.948 26.5-7.053 7.071-16.429 10.965-26.4 10.965-3.512 0-6.977-.481-10.299-1.431-4.467-1.279-9.226.692-11.485 4.752-3.952 7.101-10.2 12.819-17.595 16.102-4.576 2.031-6.945 7.134-5.543 11.941l5.724 19.62h-30.46l5.724-19.62c1.402-4.807-.967-9.91-5.543-11.941-7.395-3.282-13.643-9-17.595-16.102-2.259-4.06-7.019-6.028-11.485-4.752-3.322.949-6.787 1.431-10.298 1.431-9.973 0-19.349-3.894-26.401-10.964-7.06-7.077-10.947-16.489-10.947-26.501 0-3.526.481-7.005 1.43-10.342 1.269-4.458-.692-9.202-4.737-11.464-11.866-6.635-19.237-19.187-19.237-32.755 0-13.578 7.379-26.134 19.257-32.767 4.047-2.259 6.011-7.003 4.745-11.461-3.724-13.119-.087-27.233 9.49-36.834 7.053-7.07 16.429-10.964 26.401-10.964 3.51 0 6.975.481 10.299 1.431 4.476 1.281 9.228-.693 11.485-4.753 6.617-11.891 19.125-19.278 32.643-19.278 13.519 0 26.026 7.387 32.644 19.278 2.26 4.061 7.021 6.029 11.485 4.753 3.324-.95 6.789-1.431 10.299-1.431 9.971 0 19.347 3.894 26.4 10.965 9.577 9.601 13.214 23.715 9.49 36.833-1.266 4.458.698 9.202 4.745 11.461 11.878 6.632 19.257 19.188 19.257 32.767-.002 13.57-7.373 26.12-19.238 32.756z"/><path d="m381.625 228.504c-6.838 0-12.278 3.12-16.171 6.305-3.897-3.215-9.363-6.305-16.42-6.305-14.539 0-26.548 11.59-27.34 26.386-.473 8.817 2.867 14.989 5.421 18.866 4.127 6.262 14.106 14.74 17.066 17.189 14.353 11.875 18.626 11.875 21.179 11.875 2.41 0 6.896 0 21.184-11.862 2.938-2.439 12.847-10.889 17.004-17.21 2.551-3.879 5.887-10.054 5.417-18.858-.793-14.797-12.803-26.386-27.34-26.386zm5.213 34.254c-2.98 4.531-15.484 15.297-21.462 19.162-6.025-3.891-18.595-14.669-21.56-19.168-1.674-2.541-2.276-4.445-2.151-6.792.221-4.111 3.526-7.455 7.369-7.455 2.517 0 5.293 3.162 6.951 5.05 1.794 2.042 4.504 5.129 9.345 5.129 4.781 0 7.525-2.994 9.529-5.18 1.487-1.623 4.582-5 6.766-5 3.843 0 7.148 3.345 7.369 7.453.126 2.375-.458 4.218-2.156 6.801z"/></g></svg>