<svg id="Capa_1" enable-background="new 0 0 512 512" height="512" viewBox="0 0 512 512" width="512" xmlns="http://www.w3.org/2000/svg"><g><path d="m498.924 112.034c-3.071-9.456-10.713-16.337-20.441-18.407l-31.955-6.8-16.345-28.268c-4.976-8.604-13.881-13.74-23.822-13.74-9.942 0-18.848 5.137-23.823 13.74l-9.109 15.754c-38.628-46.787-96.479-74.313-157.584-74.313-112.566 0-204.145 91.52-204.145 204.012 0 40.153 11.576 78.771 33.535 112.073-2.563 5.765-4.137 12.1-4.496 18.783-.899 16.823 5.615 28.805 10.593 36.354 6.925 10.503 23.996 26.319 37.663 37.618 30.153 24.931 38.31 24.931 41.38 24.931 3.112 0 11.378 0 41.374-24.886 1.739-1.443 3.534-2.96 5.357-4.532 9.449 1.813 19.068 2.96 28.739 3.429v94.218c0 5.523 4.477 10 10 10s10-4.477 10-10v-94.223c38.764-1.917 76.422-14.928 108.026-37.295.409 1.263.783 2.543 1.119 3.838l1.099 4.235c1.145 4.41 5.124 7.489 9.68 7.489s8.535-3.079 9.68-7.489l1.099-4.235c6.098-23.509 24.491-41.9 48.002-47.998l4.235-1.099c4.41-1.144 7.489-5.124 7.489-9.68s-3.08-8.536-7.49-9.679l-4.234-1.098c-3.228-.837-6.36-1.907-9.377-3.189 14.315-26.244 22.657-55.359 24.451-85.295l16.591 7.375c3.637 1.616 7.455 2.413 11.243 2.413 5.681 0 11.294-1.792 16.12-5.3 8.038-5.843 12.219-15.23 11.183-25.11l-3.402-32.465 21.85-24.268c6.647-7.388 8.785-17.441 5.715-26.893zm-368.522 301.522c-3.835-1.549-14.434-8.193-30.483-21.644-14.691-12.312-27.506-25.051-31.889-31.699-5.586-8.472-7.775-15.732-7.318-24.275.902-16.83 14.834-30.522 31.055-30.522 12.132 0 21.25 10.376 26.697 16.576 3.672 4.179 6.572 7.479 11.839 7.479 5.301 0 8.466-3.45 12.473-7.818 5.57-6.073 14.894-16.237 26.063-16.237 16.22 0 30.15 13.692 31.052 30.521.456 8.53-1.734 15.793-7.323 24.285-4.438 6.744-17.224 19.52-31.815 31.792-15.96 13.419-26.523 20.02-30.351 21.542zm215.365-65.403c-7.736-13.595-19.016-24.874-32.611-32.61 13.596-7.735 24.875-19.015 32.611-32.609 7.736 13.595 19.016 24.874 32.611 32.609-13.595 7.736-24.874 19.016-32.611 32.61zm10.779-91.386-1.099-4.235c-1.145-4.41-5.124-7.489-9.68-7.489s-8.535 3.079-9.68 7.489l-1.099 4.235c-6.098 23.508-24.491 41.9-48.002 47.998l-4.235 1.098c-4.41 1.143-7.49 5.123-7.49 9.679s3.079 8.536 7.489 9.68l4.235 1.099c15.515 4.024 28.801 13.401 37.796 26.07-31.704 23.34-69.198 35.633-108.938 35.633-6.689 0-13.37-.36-19.996-1.075 5.607-5.686 10.434-11.186 13.427-15.734 4.975-7.56 11.485-19.552 10.587-36.349-1.487-27.729-23.899-49.451-51.024-49.451-17.782 0-30.891 12.173-38.323 20.044-7.433-8.103-20.326-20.044-38.748-20.044-12.973 0-24.868 4.969-33.912 13.187-17.149-28.509-26.154-60.95-26.154-94.59 0-101.465 82.607-184.012 184.145-184.012 55.686 0 108.377 25.343 143.221 68.343l-24.829 5.283c-9.729 2.07-17.37 8.951-20.441 18.407-3.07 9.452-.933 19.505 5.718 26.892l21.85 24.268-3.403 32.466c-1.035 9.881 3.146 19.268 11.185 25.111 8.045 5.847 18.274 6.924 27.361 2.885l23.249-10.334c-1.373 27.266-8.763 53.814-21.637 77.747-10.387-8.788-18.042-20.686-21.573-34.301zm121.797-131.223-24.827 27.575c-1.896 2.105-2.81 4.916-2.514 7.733l3.866 36.892c.407 3.883-1.998 6.082-3.051 6.847-1.058.767-3.899 2.38-7.481.789l-33.915-15.075c-1.293-.575-2.677-.862-4.062-.862s-2.769.287-4.062.862l-33.915 15.075c-3.583 1.593-6.424-.021-7.479-.789-1.054-.765-3.459-2.965-3.053-6.847l3.867-36.892c.296-2.817-.618-5.628-2.514-7.733l-24.827-27.575c-2.614-2.903-1.962-6.094-1.56-7.332.402-1.239 1.752-4.208 5.582-5.024l36.305-7.726c2.77-.589 5.159-2.324 6.576-4.775l18.571-32.117c1.958-3.387 5.204-3.752 6.509-3.752 1.304 0 4.55.365 6.508 3.752l18.571 32.117c1.417 2.451 3.807 4.186 6.576 4.775l36.305 7.726c3.83.815 5.18 3.785 5.582 5.023.403 1.239 1.056 4.43-1.558 7.333z"/><path d="m157.948 209.611c2.147-3.735 3.375-8.062 3.375-12.671 0-14.067-11.445-25.511-25.512-25.511h-19.583c-5.523 0-10 4.477-10 10v67.409c0 2.66 1.06 5.21 2.945 7.087 1.875 1.866 4.411 2.913 7.055 2.913h.044s17.998-.08 22.958-.08c15.52 0 28.146-12.625 28.146-28.145.001-8.34-3.646-15.844-9.428-21.002zm-22.137-18.182c3.04 0 5.512 2.472 5.512 5.511s-2.473 5.511-5.512 5.511c-1.431 0-4.119.008-7.056.018h-2.527v-11.04zm3.42 47.329c-2.427 0-7.964.019-13.002.039v-16.318c.848-.003 1.7-.006 2.531-.009h10.471c4.492 0 8.146 3.654 8.146 8.145s-3.655 8.143-8.146 8.143z"/><path d="m314.979 173.219c-4.63-3.014-10.824-1.704-13.837 2.924l-12.988 19.952-13.148-20.135c-3.018-4.623-9.213-5.926-13.841-2.905-4.624 3.02-5.925 9.216-2.905 13.841l19.9 30.473-.078 31.443c-.014 5.523 4.452 10.011 9.976 10.025h.025c5.511 0 9.985-4.461 9.999-9.975l.078-31.478 19.745-30.329c3.012-4.628 1.702-10.823-2.926-13.836z"/><path d="m215.403 171.429c-24.101 0-43.708 19.606-43.708 43.705s19.607 43.705 43.708 43.705 43.708-19.606 43.708-43.705-19.608-43.705-43.708-43.705zm0 67.409c-13.072 0-23.708-10.634-23.708-23.705s10.635-23.705 23.708-23.705 23.708 10.634 23.708 23.705c-.001 13.071-10.636 23.705-23.708 23.705z"/><path d="m163.899 94.393c5.523 0 10-4.477 10-10v-11.175c0-5.523-4.477-10-10-10s-10 4.477-10 10v11.175c0 5.523 4.477 10 10 10z"/><path d="m173.899 129.232c0-5.523-4.477-10-10-10s-10 4.477-10 10v11.175c0 5.523 4.477 10 10 10s10-4.477 10-10z"/><path d="m186.321 116.813h11.176c5.523 0 10-4.477 10-10s-4.477-10-10-10h-11.176c-5.523 0-10 4.477-10 10s4.477 10 10 10z"/><path d="m130.302 116.813h11.176c5.523 0 10-4.477 10-10s-4.477-10-10-10h-11.176c-5.523 0-10 4.477-10 10s4.477 10 10 10z"/></g></svg>