<svg id="Capa_1" enable-background="new 0 0 512 512" height="512" viewBox="0 0 512 512" width="512" xmlns="http://www.w3.org/2000/svg"><g><path d="m398.739 0h-285.478c-31.825 0-57.718 25.892-57.718 57.718v396.564c0 31.826 25.892 57.718 57.718 57.718h285.478c31.826 0 57.718-25.892 57.718-57.718v-396.564c0-31.826-25.893-57.718-57.718-57.718zm37.718 454.282c0 20.798-16.92 37.718-37.718 37.718h-285.478c-20.798 0-37.718-16.92-37.718-37.718v-396.564c0-20.798 16.92-37.718 37.718-37.718h285.478c20.798 0 37.718 16.92 37.718 37.718z"/><path d="m352.453 188.319c1.332 0 2.665-.266 3.917-.799 2.542-1.082 4.523-3.168 5.474-5.763l29.379-80.232c1.879-5.132-.709-10.822-5.813-12.777-45.39-17.387-87.72-25.84-129.41-25.84s-84.02 8.453-129.409 25.84c-5.104 1.955-7.692 7.645-5.813 12.777l29.379 80.232c.95 2.595 2.931 4.681 5.474 5.763 2.542 1.082 5.418 1.063 7.948-.05 67.372-29.681 117.471-29.68 184.843 0 1.284.566 2.657.849 4.031.849zm-29.22-31.88 5.403-13.121c2.103-5.107-.332-10.952-5.439-13.054s-10.951.333-13.054 5.439l-6.311 15.328c-12.826-3.027-25.359-4.859-37.831-5.498v-13.171c0-5.523-4.477-10-10-10s-10 4.477-10 10v13.171c-12.47.639-25.003 2.472-37.83 5.499l-6.312-15.329c-2.103-5.106-7.947-7.543-13.054-5.439-5.107 2.103-7.542 7.947-5.439 13.054l5.403 13.121c-7.663 2.451-15.463 5.306-23.447 8.565l-22.339-61.007c78.688-28.254 147.35-28.254 226.037 0l-22.339 61.008c-7.987-3.259-15.787-6.114-23.448-8.566z"/><path d="m349.954 227.649c-17.811-3.186-35.968 1.663-49.822 13.298s-21.765 28.685-21.706 46.771l.184 66.074-6.515 23.669c-4.211 15.301-1.771 31.776 6.694 45.2s22.281 22.724 37.903 25.517c3.354.6 6.69.889 9.985.889 26.874-.001 50.783-19.272 55.674-46.632.01-.057.02-.114.029-.171l16.759-104.125c2.831-15.964-.714-32.078-9.983-45.384-9.287-13.331-23.21-22.247-39.202-25.106zm29.482 67.059c-.01.057-.02.114-.029.171l-16.758 104.116c-1.735 9.586-7.09 17.93-15.086 23.5-8.018 5.586-17.729 7.714-27.351 5.996-10.249-1.833-18.952-7.691-24.506-16.498s-7.091-19.185-4.328-29.224l6.877-24.985c.24-.874.361-1.776.358-2.682l-.188-67.444c-.04-12.143 5.27-23.586 14.569-31.396 7.426-6.237 16.694-9.567 26.215-9.567 2.4 0 4.817.212 7.224.642 10.734 1.919 20.079 7.903 26.312 16.851 6.234 8.946 8.609 19.786 6.691 30.52z"/><path d="m233.391 353.792.184-66.069c.059-18.091-7.852-35.141-21.706-46.776s-32.014-16.483-49.822-13.298c-15.993 2.859-29.916 11.775-39.203 25.105-9.27 13.306-12.814 29.42-9.983 45.384l16.759 104.125c.009.057.019.114.029.171 4.892 27.362 28.798 46.632 55.674 46.632 3.292 0 6.633-.29 9.985-.889 15.622-2.792 29.438-12.093 37.903-25.517 8.466-13.423 10.906-29.898 6.694-45.2zm-17.097 58.201c-5.554 8.806-14.257 14.665-24.506 16.498-9.62 1.72-19.333-.41-27.351-5.996-7.996-5.57-13.351-13.914-15.086-23.5l-16.758-104.116c-.009-.057-.019-.114-.029-.171-1.919-10.734.457-21.574 6.69-30.52 6.233-8.947 15.578-14.932 26.312-16.851 11.954-2.136 24.142 1.116 33.439 8.925 9.299 7.81 14.609 19.253 14.569 31.4l-.188 67.439c-.002.906.118 1.808.358 2.682l6.877 24.985c2.764 10.04 1.227 20.418-4.327 29.225z"/></g></svg>