<svg id="Capa_1" enable-background="new 0 0 512 512" height="512" viewBox="0 0 512 512" width="512" xmlns="http://www.w3.org/2000/svg"><g><path d="m394.579 443.832c-4.628 0-9.208.768-13.547 2.235-3.136-8.835-8.211-16.695-14.692-23.105v-207.567c0-54.51-38.699-100.15-90.064-110.89v-35.238c0-5.523-4.477-10-10-10h-35.542v-39.267h43.189l20.521 20.522c1.953 1.953 4.512 2.929 7.071 2.929s5.119-.977 7.071-2.929c3.905-3.905 3.906-10.237 0-14.142l-23.451-23.451c-1.875-1.875-4.419-2.929-7.071-2.929h-125.623c-5.523 0-10 4.477-10 10s4.477 10 10 10h58.292v39.267h-35.542c-5.523 0-10 4.477-10 10v35.238c-51.366 10.739-90.064 56.38-90.064 110.89v286.605c0 5.523 4.477 10 10 10l337.593-.016c3.607 0 6.934-1.942 8.708-5.083 3.563-6.31 5.447-13.494 5.447-20.773-.001-23.322-18.975-42.296-42.296-42.296zm-209.388-341.719v-22.846h71.084v22.846zm-90.065 113.282c0-51.436 41.844-93.281 93.276-93.281h64.66c51.433 0 93.276 41.846 93.276 93.281v194.343c-7.227-2.956-15.127-4.577-23.379-4.577-.183 0-.366.001-.548.003v-188.856c0-5.523-4.477-10-10-10h-183.357c-5.523 0-10 4.477-10 10v241.762c0 5.523 4.477 10 10 10h132.289c.171 8.346 2.013 16.463 5.36 23.93h-171.577zm169.11 232.675h-63.834c-9.568-28.193-5.958-64.185 20.177-80.683l27.606-15.713c.381-.217.748-.459 1.097-.724 13.43-10.187 16.304-29.576 6.407-43.222l-7.14-9.844c-6.847-9.439-6.906-22.167-.122-31.706l28.09-39.871h25.894v182.375c-18.085 6.416-32.315 21.049-38.175 39.388zm-32.133-193.446c-4.906 6.898-7.742 14.773-8.516 22.801-4.906 1.725-7.712 6.978-6.318 12.071 1.111 4.055 4.563 6.84 8.498 7.295 1.497 4.509 3.694 8.842 6.591 12.837l7.14 9.843c3.451 4.757 2.585 11.456-1.871 15.199l-27.131 15.443c-.121.069-.24.14-.357.213-17.135 10.722-28.826 28.761-32.918 50.796-2.824 15.207-2.003 31.453 2.253 46.948h-40.42v-221.762h112.998zm183.991 237.36h-126.282c-5.497-7.217-8.483-16.019-8.483-25.191 0-22.956 18.675-41.632 41.63-41.632 21.24 0 39.025 15.89 41.371 36.962.404 3.633 2.759 6.756 6.14 8.144 3.38 1.389 7.251.821 10.092-1.479 4.003-3.242 8.85-4.956 14.016-4.956 12.293 0 22.295 10.002 22.295 22.296.001 1.987-.264 3.957-.779 5.856z"/></g></svg>