<svg id="Capa_1" enable-background="new 0 0 512 512" height="512" viewBox="0 0 512 512" width="512" xmlns="http://www.w3.org/2000/svg"><g><path d="m256 316.95c-40.77 0-73.938 32.92-73.938 73.385s33.168 73.385 73.938 73.385c40.769 0 73.937-32.92 73.937-73.385s-33.168-73.385-73.937-73.385zm0 126.77c-29.741 0-53.938-23.949-53.938-53.385s24.197-53.385 53.938-53.385c29.74 0 53.937 23.948 53.937 53.385s-24.197 53.385-53.937 53.385z"/><path d="m255.956 0c-67.599 0-122.594 54.599-122.594 121.709v268.626c0 67.086 55.015 121.665 122.638 121.665s122.638-54.579 122.638-121.665v-268.626c0-67.11-54.995-121.709-122.682-121.709zm-102.594 121.709c0-56.083 46.024-101.709 102.682-101.709 56.57 0 102.594 45.626 102.594 101.709v108.053h-205.276zm102.638 146.96c-19.68 0-38.7 4.569-55.892 13.331v-32.238h111.783v32.293c-16.769-8.554-35.772-13.386-55.891-13.386zm0 223.331c-56.595 0-102.638-45.607-102.638-101.665v-140.573h26.746v49.998c0 3.748 2.096 7.182 5.43 8.895 3.334 1.712 7.347 1.418 10.393-.765 17.557-12.574 38.328-19.22 60.069-19.22 56.595 0 102.638 45.607 102.638 101.666 0 56.057-46.043 101.664-102.638 101.664zm75.892-197.173v-45.064h26.746v74.046c-7.291-11.033-16.339-20.825-26.746-28.982z"/><path d="m232.792 167.373c15.967 13.211 20.7 13.211 23.243 13.211 2.57 0 7.354 0 23.248-13.195 3.31-2.749 14.471-12.263 19.101-19.303 2.798-4.255 6.459-11.025 5.945-20.647-.862-16.12-13.935-28.747-29.76-28.747-7.983 0-14.132 3.841-18.448 7.607-4.312-3.765-10.547-7.607-18.689-7.607-15.825 0-28.898 12.627-29.761 28.749-.515 9.638 3.149 16.404 5.95 20.653 4.595 6.972 15.835 16.519 19.171 19.279zm-5.15-38.866c.29-5.413 4.682-9.816 9.79-9.816 3.499 0 6.924 3.9 8.97 6.23 1.989 2.266 4.715 5.37 9.6 5.37 4.835 0 7.604-3.022 9.83-5.45 2.108-2.3 5.637-6.149 8.738-6.149 5.107 0 9.499 4.403 9.789 9.814.16 3-.593 5.409-2.686 8.591-3.665 5.574-18.956 18.657-25.619 22.722-6.718-4.098-22.084-17.194-25.732-22.73-2.09-3.17-2.841-5.576-2.68-8.582z"/></g></svg>