<svg id="Capa_1" enable-background="new 0 0 512 512" height="512" viewBox="0 0 512 512" width="512" xmlns="http://www.w3.org/2000/svg"><g><path d="m458.276 360.836h-30.466c-28.467 0-53.906 13.21-70.511 33.821v-273.755c0-19.818-16.123-35.941-35.94-35.941h-34.659v-20.699h35.289c5.522 0 10-4.477 10-10v-44.262c0-5.523-4.478-10-10-10h-242.954c-5.522 0-10 4.477-10 10v44.262c0 5.523 4.478 10 10 10h35.289v20.699h-34.659c-19.818 0-35.941 16.123-35.941 35.941v355.157c0 19.818 16.123 35.941 35.941 35.941h298.102c49.907 0 90.51-40.603 90.51-90.51v-50.654c-.001-5.523-4.478-10-10.001-10zm-369.241-340.836h222.954v24.262h-222.954zm45.289 44.262h132.376v20.699h-132.376zm-54.659 40.699h241.694c8.79 0 15.94 7.151 15.94 15.941v273.755c-15.641-19.416-39.121-32.263-65.587-33.689v-191.495c0-5.523-4.478-10-10-10h-197.988v-38.571c0-8.79 7.151-15.941 15.941-15.941zm156.659 255.875c-5.522 0-10 4.477-10 10v43.111h-162.6v-234.474h187.989v181.363zm-156.659 131.164c-8.79 0-15.941-7.151-15.941-15.941v-42.111h163.455c3.231 23.367 15.415 43.913 32.967 58.052zm166.685-68.606c-.001-.047-.003-.093-.004-.14-.003-.102-.005-.204-.007-.305-.001-.072-.003-.144-.004-.216-.002-.087-.003-.173-.004-.26-.001-.094-.002-.188-.003-.281-.001-.069-.002-.138-.002-.207-.001-.165-.002-.33-.002-.495v-40.654h20.466c38.879 0 70.51 31.63 70.51 70.51v25.6l-35.134-35.133c-3.906-3.905-10.236-3.905-14.143 0-3.905 3.905-3.905 10.237 0 14.142l36.045 36.045h-7.234c-38.242 0-69.472-30.603-70.484-68.606zm201.926-1.904c0 38.879-31.631 70.51-70.51 70.51h-7.005l36.045-36.044c3.905-3.905 3.905-10.237 0-14.142-3.904-3.905-10.234-3.905-14.143 0l-35.363 35.363v-25.831c0-38.879 31.631-70.51 70.511-70.51h20.466v40.654z"/><path d="m208.539 265.789h-19.883v-19.861c0-5.523-4.478-10-10-10h-41.875c-5.522 0-10 4.477-10 10v19.861h-19.884c-5.522 0-10 4.477-10 10v41.844c0 5.523 4.478 10 10 10h19.884v19.861c0 5.523 4.478 10 10 10h41.875c5.522 0 10-4.477 10-10v-19.861h19.883c5.522 0 10-4.477 10-10v-41.844c0-5.523-4.477-10-10-10zm-10 41.843h-19.883c-5.522 0-10 4.477-10 10v19.861h-21.875v-19.861c0-5.523-4.478-10-10-10h-19.884v-21.844h19.884c5.522 0 10-4.477 10-10v-19.861h21.875v19.861c0 5.523 4.478 10 10 10h19.883z"/></g></svg>